%TF.GenerationSoftware,KiCad,Pcbnew,6.0.11*%
%TF.CreationDate,2023-02-03T09:16:35-05:00*%
%TF.ProjectId,PhasedArrayReceiver,50686173-6564-4417-9272-617952656365,rev?*%
%TF.SameCoordinates,Original*%
%TF.FileFunction,Legend,Top*%
%TF.FilePolarity,Positive*%
%FSLAX46Y46*%
G04 Gerber Fmt 4.6, Leading zero omitted, Abs format (unit mm)*
G04 Created by KiCad (PCBNEW 6.0.11) date 2023-02-03 09:16:35*
%MOMM*%
%LPD*%
G01*
G04 APERTURE LIST*
%ADD10C,0.098425*%
%ADD11C,0.150000*%
%ADD12C,0.127000*%
%ADD13C,0.100000*%
%ADD14C,0.200000*%
%ADD15C,0.120000*%
%ADD16C,0.250000*%
%ADD17C,0.152400*%
G04 APERTURE END LIST*
D10*
%TO.C,R4*%
X91568102Y-110275616D02*
X91380626Y-110406850D01*
X91568102Y-110500588D02*
X91174401Y-110500588D01*
X91174401Y-110350607D01*
X91193149Y-110313112D01*
X91211897Y-110294364D01*
X91249392Y-110275616D01*
X91305635Y-110275616D01*
X91343130Y-110294364D01*
X91361878Y-110313112D01*
X91380626Y-110350607D01*
X91380626Y-110500588D01*
X91305635Y-109938158D02*
X91568102Y-109938158D01*
X91155654Y-110031897D02*
X91436869Y-110125635D01*
X91436869Y-109881915D01*
%TO.C,R3*%
X91568102Y-93335616D02*
X91380626Y-93466850D01*
X91568102Y-93560588D02*
X91174401Y-93560588D01*
X91174401Y-93410607D01*
X91193149Y-93373112D01*
X91211897Y-93354364D01*
X91249392Y-93335616D01*
X91305635Y-93335616D01*
X91343130Y-93354364D01*
X91361878Y-93373112D01*
X91380626Y-93410607D01*
X91380626Y-93560588D01*
X91174401Y-93204383D02*
X91174401Y-92960663D01*
X91324383Y-93091897D01*
X91324383Y-93035654D01*
X91343130Y-92998158D01*
X91361878Y-92979411D01*
X91399373Y-92960663D01*
X91493112Y-92960663D01*
X91530607Y-92979411D01*
X91549355Y-92998158D01*
X91568102Y-93035654D01*
X91568102Y-93148140D01*
X91549355Y-93185635D01*
X91530607Y-93204383D01*
%TO.C,R2*%
X91568102Y-76395616D02*
X91380626Y-76526850D01*
X91568102Y-76620588D02*
X91174401Y-76620588D01*
X91174401Y-76470607D01*
X91193149Y-76433112D01*
X91211897Y-76414364D01*
X91249392Y-76395616D01*
X91305635Y-76395616D01*
X91343130Y-76414364D01*
X91361878Y-76433112D01*
X91380626Y-76470607D01*
X91380626Y-76620588D01*
X91211897Y-76245635D02*
X91193149Y-76226887D01*
X91174401Y-76189392D01*
X91174401Y-76095654D01*
X91193149Y-76058158D01*
X91211897Y-76039411D01*
X91249392Y-76020663D01*
X91286887Y-76020663D01*
X91343130Y-76039411D01*
X91568102Y-76264383D01*
X91568102Y-76020663D01*
%TO.C,R1*%
X91538102Y-59485616D02*
X91350626Y-59616850D01*
X91538102Y-59710588D02*
X91144401Y-59710588D01*
X91144401Y-59560607D01*
X91163149Y-59523112D01*
X91181897Y-59504364D01*
X91219392Y-59485616D01*
X91275635Y-59485616D01*
X91313130Y-59504364D01*
X91331878Y-59523112D01*
X91350626Y-59560607D01*
X91350626Y-59710588D01*
X91538102Y-59110663D02*
X91538102Y-59335635D01*
X91538102Y-59223149D02*
X91144401Y-59223149D01*
X91200644Y-59260644D01*
X91238140Y-59298140D01*
X91256887Y-59335635D01*
D11*
%TO.C,L4*%
X89515333Y-111843123D02*
X89210571Y-111843123D01*
X89210571Y-111203123D01*
X90002952Y-111416457D02*
X90002952Y-111843123D01*
X89850571Y-111172647D02*
X89698190Y-111629790D01*
X90094380Y-111629790D01*
%TO.C,L3*%
X89515333Y-94903123D02*
X89210571Y-94903123D01*
X89210571Y-94263123D01*
X89667714Y-94263123D02*
X90063904Y-94263123D01*
X89850571Y-94506933D01*
X89942000Y-94506933D01*
X90002952Y-94537409D01*
X90033428Y-94567885D01*
X90063904Y-94628838D01*
X90063904Y-94781219D01*
X90033428Y-94842171D01*
X90002952Y-94872647D01*
X89942000Y-94903123D01*
X89759142Y-94903123D01*
X89698190Y-94872647D01*
X89667714Y-94842171D01*
%TO.C,L2*%
X89515333Y-77963123D02*
X89210571Y-77963123D01*
X89210571Y-77323123D01*
X89698190Y-77384076D02*
X89728666Y-77353600D01*
X89789619Y-77323123D01*
X89942000Y-77323123D01*
X90002952Y-77353600D01*
X90033428Y-77384076D01*
X90063904Y-77445028D01*
X90063904Y-77505980D01*
X90033428Y-77597409D01*
X89667714Y-77963123D01*
X90063904Y-77963123D01*
%TO.C,L1*%
X89515333Y-61053123D02*
X89210571Y-61053123D01*
X89210571Y-60413123D01*
X90063904Y-61053123D02*
X89698190Y-61053123D01*
X89881047Y-61053123D02*
X89881047Y-60413123D01*
X89820095Y-60504552D01*
X89759142Y-60565504D01*
X89698190Y-60595980D01*
D10*
%TO.C,R9*%
X194714383Y-60048102D02*
X194583149Y-59860626D01*
X194489411Y-60048102D02*
X194489411Y-59654401D01*
X194639392Y-59654401D01*
X194676887Y-59673149D01*
X194695635Y-59691897D01*
X194714383Y-59729392D01*
X194714383Y-59785635D01*
X194695635Y-59823130D01*
X194676887Y-59841878D01*
X194639392Y-59860626D01*
X194489411Y-59860626D01*
X194901859Y-60048102D02*
X194976850Y-60048102D01*
X195014345Y-60029355D01*
X195033093Y-60010607D01*
X195070588Y-59954364D01*
X195089336Y-59879373D01*
X195089336Y-59729392D01*
X195070588Y-59691897D01*
X195051841Y-59673149D01*
X195014345Y-59654401D01*
X194939355Y-59654401D01*
X194901859Y-59673149D01*
X194883112Y-59691897D01*
X194864364Y-59729392D01*
X194864364Y-59823130D01*
X194883112Y-59860626D01*
X194901859Y-59879373D01*
X194939355Y-59898121D01*
X195014345Y-59898121D01*
X195051841Y-59879373D01*
X195070588Y-59860626D01*
X195089336Y-59823130D01*
%TO.C,R8*%
X195644383Y-60448102D02*
X195513149Y-60260626D01*
X195419411Y-60448102D02*
X195419411Y-60054401D01*
X195569392Y-60054401D01*
X195606887Y-60073149D01*
X195625635Y-60091897D01*
X195644383Y-60129392D01*
X195644383Y-60185635D01*
X195625635Y-60223130D01*
X195606887Y-60241878D01*
X195569392Y-60260626D01*
X195419411Y-60260626D01*
X195869355Y-60223130D02*
X195831859Y-60204383D01*
X195813112Y-60185635D01*
X195794364Y-60148140D01*
X195794364Y-60129392D01*
X195813112Y-60091897D01*
X195831859Y-60073149D01*
X195869355Y-60054401D01*
X195944345Y-60054401D01*
X195981841Y-60073149D01*
X196000588Y-60091897D01*
X196019336Y-60129392D01*
X196019336Y-60148140D01*
X196000588Y-60185635D01*
X195981841Y-60204383D01*
X195944345Y-60223130D01*
X195869355Y-60223130D01*
X195831859Y-60241878D01*
X195813112Y-60260626D01*
X195794364Y-60298121D01*
X195794364Y-60373112D01*
X195813112Y-60410607D01*
X195831859Y-60429355D01*
X195869355Y-60448102D01*
X195944345Y-60448102D01*
X195981841Y-60429355D01*
X196000588Y-60410607D01*
X196019336Y-60373112D01*
X196019336Y-60298121D01*
X196000588Y-60260626D01*
X195981841Y-60241878D01*
X195944345Y-60223130D01*
%TO.C,R7*%
X170124383Y-51838102D02*
X169993149Y-51650626D01*
X169899411Y-51838102D02*
X169899411Y-51444401D01*
X170049392Y-51444401D01*
X170086887Y-51463149D01*
X170105635Y-51481897D01*
X170124383Y-51519392D01*
X170124383Y-51575635D01*
X170105635Y-51613130D01*
X170086887Y-51631878D01*
X170049392Y-51650626D01*
X169899411Y-51650626D01*
X170255616Y-51444401D02*
X170518084Y-51444401D01*
X170349355Y-51838102D01*
%TO.C,R6*%
X170124383Y-47888102D02*
X169993149Y-47700626D01*
X169899411Y-47888102D02*
X169899411Y-47494401D01*
X170049392Y-47494401D01*
X170086887Y-47513149D01*
X170105635Y-47531897D01*
X170124383Y-47569392D01*
X170124383Y-47625635D01*
X170105635Y-47663130D01*
X170086887Y-47681878D01*
X170049392Y-47700626D01*
X169899411Y-47700626D01*
X170461841Y-47494401D02*
X170386850Y-47494401D01*
X170349355Y-47513149D01*
X170330607Y-47531897D01*
X170293112Y-47588140D01*
X170274364Y-47663130D01*
X170274364Y-47813112D01*
X170293112Y-47850607D01*
X170311859Y-47869355D01*
X170349355Y-47888102D01*
X170424345Y-47888102D01*
X170461841Y-47869355D01*
X170480588Y-47850607D01*
X170499336Y-47813112D01*
X170499336Y-47719373D01*
X170480588Y-47681878D01*
X170461841Y-47663130D01*
X170424345Y-47644383D01*
X170349355Y-47644383D01*
X170311859Y-47663130D01*
X170293112Y-47681878D01*
X170274364Y-47719373D01*
%TO.C,R5*%
X211638102Y-51115616D02*
X211450626Y-51246850D01*
X211638102Y-51340588D02*
X211244401Y-51340588D01*
X211244401Y-51190607D01*
X211263149Y-51153112D01*
X211281897Y-51134364D01*
X211319392Y-51115616D01*
X211375635Y-51115616D01*
X211413130Y-51134364D01*
X211431878Y-51153112D01*
X211450626Y-51190607D01*
X211450626Y-51340588D01*
X211244401Y-50759411D02*
X211244401Y-50946887D01*
X211431878Y-50965635D01*
X211413130Y-50946887D01*
X211394383Y-50909392D01*
X211394383Y-50815654D01*
X211413130Y-50778158D01*
X211431878Y-50759411D01*
X211469373Y-50740663D01*
X211563112Y-50740663D01*
X211600607Y-50759411D01*
X211619355Y-50778158D01*
X211638102Y-50815654D01*
X211638102Y-50909392D01*
X211619355Y-50946887D01*
X211600607Y-50965635D01*
D11*
%TO.C,J7*%
X231602380Y-80503333D02*
X232316666Y-80503333D01*
X232459523Y-80550952D01*
X232554761Y-80646190D01*
X232602380Y-80789047D01*
X232602380Y-80884285D01*
X231602380Y-80122380D02*
X231602380Y-79455714D01*
X232602380Y-79884285D01*
%TO.C,J6*%
X231602380Y-68663333D02*
X232316666Y-68663333D01*
X232459523Y-68710952D01*
X232554761Y-68806190D01*
X232602380Y-68949047D01*
X232602380Y-69044285D01*
X231602380Y-67758571D02*
X231602380Y-67949047D01*
X231650000Y-68044285D01*
X231697619Y-68091904D01*
X231840476Y-68187142D01*
X232030952Y-68234761D01*
X232411904Y-68234761D01*
X232507142Y-68187142D01*
X232554761Y-68139523D01*
X232602380Y-68044285D01*
X232602380Y-67853809D01*
X232554761Y-67758571D01*
X232507142Y-67710952D01*
X232411904Y-67663333D01*
X232173809Y-67663333D01*
X232078571Y-67710952D01*
X232030952Y-67758571D01*
X231983333Y-67853809D01*
X231983333Y-68044285D01*
X232030952Y-68139523D01*
X232078571Y-68187142D01*
X232173809Y-68234761D01*
%TO.C,C19*%
X206542142Y-69312142D02*
X206494523Y-69359761D01*
X206351666Y-69407380D01*
X206256428Y-69407380D01*
X206113571Y-69359761D01*
X206018333Y-69264523D01*
X205970714Y-69169285D01*
X205923095Y-68978809D01*
X205923095Y-68835952D01*
X205970714Y-68645476D01*
X206018333Y-68550238D01*
X206113571Y-68455000D01*
X206256428Y-68407380D01*
X206351666Y-68407380D01*
X206494523Y-68455000D01*
X206542142Y-68502619D01*
X207494523Y-69407380D02*
X206923095Y-69407380D01*
X207208809Y-69407380D02*
X207208809Y-68407380D01*
X207113571Y-68550238D01*
X207018333Y-68645476D01*
X206923095Y-68693095D01*
X207970714Y-69407380D02*
X208161190Y-69407380D01*
X208256428Y-69359761D01*
X208304047Y-69312142D01*
X208399285Y-69169285D01*
X208446904Y-68978809D01*
X208446904Y-68597857D01*
X208399285Y-68502619D01*
X208351666Y-68455000D01*
X208256428Y-68407380D01*
X208065952Y-68407380D01*
X207970714Y-68455000D01*
X207923095Y-68502619D01*
X207875476Y-68597857D01*
X207875476Y-68835952D01*
X207923095Y-68931190D01*
X207970714Y-68978809D01*
X208065952Y-69026428D01*
X208256428Y-69026428D01*
X208351666Y-68978809D01*
X208399285Y-68931190D01*
X208446904Y-68835952D01*
%TO.C,C18*%
X167052142Y-67572142D02*
X167004523Y-67619761D01*
X166861666Y-67667380D01*
X166766428Y-67667380D01*
X166623571Y-67619761D01*
X166528333Y-67524523D01*
X166480714Y-67429285D01*
X166433095Y-67238809D01*
X166433095Y-67095952D01*
X166480714Y-66905476D01*
X166528333Y-66810238D01*
X166623571Y-66715000D01*
X166766428Y-66667380D01*
X166861666Y-66667380D01*
X167004523Y-66715000D01*
X167052142Y-66762619D01*
X168004523Y-67667380D02*
X167433095Y-67667380D01*
X167718809Y-67667380D02*
X167718809Y-66667380D01*
X167623571Y-66810238D01*
X167528333Y-66905476D01*
X167433095Y-66953095D01*
X168575952Y-67095952D02*
X168480714Y-67048333D01*
X168433095Y-67000714D01*
X168385476Y-66905476D01*
X168385476Y-66857857D01*
X168433095Y-66762619D01*
X168480714Y-66715000D01*
X168575952Y-66667380D01*
X168766428Y-66667380D01*
X168861666Y-66715000D01*
X168909285Y-66762619D01*
X168956904Y-66857857D01*
X168956904Y-66905476D01*
X168909285Y-67000714D01*
X168861666Y-67048333D01*
X168766428Y-67095952D01*
X168575952Y-67095952D01*
X168480714Y-67143571D01*
X168433095Y-67191190D01*
X168385476Y-67286428D01*
X168385476Y-67476904D01*
X168433095Y-67572142D01*
X168480714Y-67619761D01*
X168575952Y-67667380D01*
X168766428Y-67667380D01*
X168861666Y-67619761D01*
X168909285Y-67572142D01*
X168956904Y-67476904D01*
X168956904Y-67286428D01*
X168909285Y-67191190D01*
X168861666Y-67143571D01*
X168766428Y-67095952D01*
%TO.C,C14*%
X186052142Y-83312142D02*
X186004523Y-83359761D01*
X185861666Y-83407380D01*
X185766428Y-83407380D01*
X185623571Y-83359761D01*
X185528333Y-83264523D01*
X185480714Y-83169285D01*
X185433095Y-82978809D01*
X185433095Y-82835952D01*
X185480714Y-82645476D01*
X185528333Y-82550238D01*
X185623571Y-82455000D01*
X185766428Y-82407380D01*
X185861666Y-82407380D01*
X186004523Y-82455000D01*
X186052142Y-82502619D01*
X187004523Y-83407380D02*
X186433095Y-83407380D01*
X186718809Y-83407380D02*
X186718809Y-82407380D01*
X186623571Y-82550238D01*
X186528333Y-82645476D01*
X186433095Y-82693095D01*
X187861666Y-82740714D02*
X187861666Y-83407380D01*
X187623571Y-82359761D02*
X187385476Y-83074047D01*
X188004523Y-83074047D01*
%TO.C,C13*%
X186042142Y-78592142D02*
X185994523Y-78639761D01*
X185851666Y-78687380D01*
X185756428Y-78687380D01*
X185613571Y-78639761D01*
X185518333Y-78544523D01*
X185470714Y-78449285D01*
X185423095Y-78258809D01*
X185423095Y-78115952D01*
X185470714Y-77925476D01*
X185518333Y-77830238D01*
X185613571Y-77735000D01*
X185756428Y-77687380D01*
X185851666Y-77687380D01*
X185994523Y-77735000D01*
X186042142Y-77782619D01*
X186994523Y-78687380D02*
X186423095Y-78687380D01*
X186708809Y-78687380D02*
X186708809Y-77687380D01*
X186613571Y-77830238D01*
X186518333Y-77925476D01*
X186423095Y-77973095D01*
X187327857Y-77687380D02*
X187946904Y-77687380D01*
X187613571Y-78068333D01*
X187756428Y-78068333D01*
X187851666Y-78115952D01*
X187899285Y-78163571D01*
X187946904Y-78258809D01*
X187946904Y-78496904D01*
X187899285Y-78592142D01*
X187851666Y-78639761D01*
X187756428Y-78687380D01*
X187470714Y-78687380D01*
X187375476Y-78639761D01*
X187327857Y-78592142D01*
D10*
%TO.C,C1*%
X83644383Y-67390607D02*
X83625635Y-67409355D01*
X83569392Y-67428102D01*
X83531897Y-67428102D01*
X83475654Y-67409355D01*
X83438158Y-67371859D01*
X83419411Y-67334364D01*
X83400663Y-67259373D01*
X83400663Y-67203130D01*
X83419411Y-67128140D01*
X83438158Y-67090644D01*
X83475654Y-67053149D01*
X83531897Y-67034401D01*
X83569392Y-67034401D01*
X83625635Y-67053149D01*
X83644383Y-67071897D01*
X84019336Y-67428102D02*
X83794364Y-67428102D01*
X83906850Y-67428102D02*
X83906850Y-67034401D01*
X83869355Y-67090644D01*
X83831859Y-67128140D01*
X83794364Y-67146887D01*
%TO.C,C17*%
X169266906Y-64030607D02*
X169248158Y-64049355D01*
X169191915Y-64068102D01*
X169154420Y-64068102D01*
X169098177Y-64049355D01*
X169060682Y-64011859D01*
X169041934Y-63974364D01*
X169023186Y-63899373D01*
X169023186Y-63843130D01*
X169041934Y-63768140D01*
X169060682Y-63730644D01*
X169098177Y-63693149D01*
X169154420Y-63674401D01*
X169191915Y-63674401D01*
X169248158Y-63693149D01*
X169266906Y-63711897D01*
X169641859Y-64068102D02*
X169416887Y-64068102D01*
X169529373Y-64068102D02*
X169529373Y-63674401D01*
X169491878Y-63730644D01*
X169454383Y-63768140D01*
X169416887Y-63786887D01*
X169773093Y-63674401D02*
X170035560Y-63674401D01*
X169866831Y-64068102D01*
%TO.C,C16*%
X184566906Y-85750607D02*
X184548158Y-85769355D01*
X184491915Y-85788102D01*
X184454420Y-85788102D01*
X184398177Y-85769355D01*
X184360682Y-85731859D01*
X184341934Y-85694364D01*
X184323186Y-85619373D01*
X184323186Y-85563130D01*
X184341934Y-85488140D01*
X184360682Y-85450644D01*
X184398177Y-85413149D01*
X184454420Y-85394401D01*
X184491915Y-85394401D01*
X184548158Y-85413149D01*
X184566906Y-85431897D01*
X184941859Y-85788102D02*
X184716887Y-85788102D01*
X184829373Y-85788102D02*
X184829373Y-85394401D01*
X184791878Y-85450644D01*
X184754383Y-85488140D01*
X184716887Y-85506887D01*
X185279317Y-85394401D02*
X185204327Y-85394401D01*
X185166831Y-85413149D01*
X185148084Y-85431897D01*
X185110588Y-85488140D01*
X185091841Y-85563130D01*
X185091841Y-85713112D01*
X185110588Y-85750607D01*
X185129336Y-85769355D01*
X185166831Y-85788102D01*
X185241822Y-85788102D01*
X185279317Y-85769355D01*
X185298065Y-85750607D01*
X185316813Y-85713112D01*
X185316813Y-85619373D01*
X185298065Y-85581878D01*
X185279317Y-85563130D01*
X185241822Y-85544383D01*
X185166831Y-85544383D01*
X185129336Y-85563130D01*
X185110588Y-85581878D01*
X185091841Y-85619373D01*
%TO.C,C15*%
X184546906Y-81060607D02*
X184528158Y-81079355D01*
X184471915Y-81098102D01*
X184434420Y-81098102D01*
X184378177Y-81079355D01*
X184340682Y-81041859D01*
X184321934Y-81004364D01*
X184303186Y-80929373D01*
X184303186Y-80873130D01*
X184321934Y-80798140D01*
X184340682Y-80760644D01*
X184378177Y-80723149D01*
X184434420Y-80704401D01*
X184471915Y-80704401D01*
X184528158Y-80723149D01*
X184546906Y-80741897D01*
X184921859Y-81098102D02*
X184696887Y-81098102D01*
X184809373Y-81098102D02*
X184809373Y-80704401D01*
X184771878Y-80760644D01*
X184734383Y-80798140D01*
X184696887Y-80816887D01*
X185278065Y-80704401D02*
X185090588Y-80704401D01*
X185071841Y-80891878D01*
X185090588Y-80873130D01*
X185128084Y-80854383D01*
X185221822Y-80854383D01*
X185259317Y-80873130D01*
X185278065Y-80891878D01*
X185296813Y-80929373D01*
X185296813Y-81023112D01*
X185278065Y-81060607D01*
X185259317Y-81079355D01*
X185221822Y-81098102D01*
X185128084Y-81098102D01*
X185090588Y-81079355D01*
X185071841Y-81060607D01*
%TO.C,C12*%
X101326906Y-114670607D02*
X101308158Y-114689355D01*
X101251915Y-114708102D01*
X101214420Y-114708102D01*
X101158177Y-114689355D01*
X101120682Y-114651859D01*
X101101934Y-114614364D01*
X101083186Y-114539373D01*
X101083186Y-114483130D01*
X101101934Y-114408140D01*
X101120682Y-114370644D01*
X101158177Y-114333149D01*
X101214420Y-114314401D01*
X101251915Y-114314401D01*
X101308158Y-114333149D01*
X101326906Y-114351897D01*
X101701859Y-114708102D02*
X101476887Y-114708102D01*
X101589373Y-114708102D02*
X101589373Y-114314401D01*
X101551878Y-114370644D01*
X101514383Y-114408140D01*
X101476887Y-114426887D01*
X101851841Y-114351897D02*
X101870588Y-114333149D01*
X101908084Y-114314401D01*
X102001822Y-114314401D01*
X102039317Y-114333149D01*
X102058065Y-114351897D01*
X102076813Y-114389392D01*
X102076813Y-114426887D01*
X102058065Y-114483130D01*
X101833093Y-114708102D01*
X102076813Y-114708102D01*
%TO.C,C11*%
X101326906Y-97760607D02*
X101308158Y-97779355D01*
X101251915Y-97798102D01*
X101214420Y-97798102D01*
X101158177Y-97779355D01*
X101120682Y-97741859D01*
X101101934Y-97704364D01*
X101083186Y-97629373D01*
X101083186Y-97573130D01*
X101101934Y-97498140D01*
X101120682Y-97460644D01*
X101158177Y-97423149D01*
X101214420Y-97404401D01*
X101251915Y-97404401D01*
X101308158Y-97423149D01*
X101326906Y-97441897D01*
X101701859Y-97798102D02*
X101476887Y-97798102D01*
X101589373Y-97798102D02*
X101589373Y-97404401D01*
X101551878Y-97460644D01*
X101514383Y-97498140D01*
X101476887Y-97516887D01*
X102076813Y-97798102D02*
X101851841Y-97798102D01*
X101964327Y-97798102D02*
X101964327Y-97404401D01*
X101926831Y-97460644D01*
X101889336Y-97498140D01*
X101851841Y-97516887D01*
%TO.C,C10*%
X101326906Y-80850607D02*
X101308158Y-80869355D01*
X101251915Y-80888102D01*
X101214420Y-80888102D01*
X101158177Y-80869355D01*
X101120682Y-80831859D01*
X101101934Y-80794364D01*
X101083186Y-80719373D01*
X101083186Y-80663130D01*
X101101934Y-80588140D01*
X101120682Y-80550644D01*
X101158177Y-80513149D01*
X101214420Y-80494401D01*
X101251915Y-80494401D01*
X101308158Y-80513149D01*
X101326906Y-80531897D01*
X101701859Y-80888102D02*
X101476887Y-80888102D01*
X101589373Y-80888102D02*
X101589373Y-80494401D01*
X101551878Y-80550644D01*
X101514383Y-80588140D01*
X101476887Y-80606887D01*
X101945579Y-80494401D02*
X101983074Y-80494401D01*
X102020570Y-80513149D01*
X102039317Y-80531897D01*
X102058065Y-80569392D01*
X102076813Y-80644383D01*
X102076813Y-80738121D01*
X102058065Y-80813112D01*
X102039317Y-80850607D01*
X102020570Y-80869355D01*
X101983074Y-80888102D01*
X101945579Y-80888102D01*
X101908084Y-80869355D01*
X101889336Y-80850607D01*
X101870588Y-80813112D01*
X101851841Y-80738121D01*
X101851841Y-80644383D01*
X101870588Y-80569392D01*
X101889336Y-80531897D01*
X101908084Y-80513149D01*
X101945579Y-80494401D01*
%TO.C,C9*%
X88754383Y-110410607D02*
X88735635Y-110429355D01*
X88679392Y-110448102D01*
X88641897Y-110448102D01*
X88585654Y-110429355D01*
X88548158Y-110391859D01*
X88529411Y-110354364D01*
X88510663Y-110279373D01*
X88510663Y-110223130D01*
X88529411Y-110148140D01*
X88548158Y-110110644D01*
X88585654Y-110073149D01*
X88641897Y-110054401D01*
X88679392Y-110054401D01*
X88735635Y-110073149D01*
X88754383Y-110091897D01*
X88941859Y-110448102D02*
X89016850Y-110448102D01*
X89054345Y-110429355D01*
X89073093Y-110410607D01*
X89110588Y-110354364D01*
X89129336Y-110279373D01*
X89129336Y-110129392D01*
X89110588Y-110091897D01*
X89091841Y-110073149D01*
X89054345Y-110054401D01*
X88979355Y-110054401D01*
X88941859Y-110073149D01*
X88923112Y-110091897D01*
X88904364Y-110129392D01*
X88904364Y-110223130D01*
X88923112Y-110260626D01*
X88941859Y-110279373D01*
X88979355Y-110298121D01*
X89054345Y-110298121D01*
X89091841Y-110279373D01*
X89110588Y-110260626D01*
X89129336Y-110223130D01*
%TO.C,C8*%
X88754383Y-93470607D02*
X88735635Y-93489355D01*
X88679392Y-93508102D01*
X88641897Y-93508102D01*
X88585654Y-93489355D01*
X88548158Y-93451859D01*
X88529411Y-93414364D01*
X88510663Y-93339373D01*
X88510663Y-93283130D01*
X88529411Y-93208140D01*
X88548158Y-93170644D01*
X88585654Y-93133149D01*
X88641897Y-93114401D01*
X88679392Y-93114401D01*
X88735635Y-93133149D01*
X88754383Y-93151897D01*
X88979355Y-93283130D02*
X88941859Y-93264383D01*
X88923112Y-93245635D01*
X88904364Y-93208140D01*
X88904364Y-93189392D01*
X88923112Y-93151897D01*
X88941859Y-93133149D01*
X88979355Y-93114401D01*
X89054345Y-93114401D01*
X89091841Y-93133149D01*
X89110588Y-93151897D01*
X89129336Y-93189392D01*
X89129336Y-93208140D01*
X89110588Y-93245635D01*
X89091841Y-93264383D01*
X89054345Y-93283130D01*
X88979355Y-93283130D01*
X88941859Y-93301878D01*
X88923112Y-93320626D01*
X88904364Y-93358121D01*
X88904364Y-93433112D01*
X88923112Y-93470607D01*
X88941859Y-93489355D01*
X88979355Y-93508102D01*
X89054345Y-93508102D01*
X89091841Y-93489355D01*
X89110588Y-93470607D01*
X89129336Y-93433112D01*
X89129336Y-93358121D01*
X89110588Y-93320626D01*
X89091841Y-93301878D01*
X89054345Y-93283130D01*
%TO.C,C7*%
X88754383Y-76530607D02*
X88735635Y-76549355D01*
X88679392Y-76568102D01*
X88641897Y-76568102D01*
X88585654Y-76549355D01*
X88548158Y-76511859D01*
X88529411Y-76474364D01*
X88510663Y-76399373D01*
X88510663Y-76343130D01*
X88529411Y-76268140D01*
X88548158Y-76230644D01*
X88585654Y-76193149D01*
X88641897Y-76174401D01*
X88679392Y-76174401D01*
X88735635Y-76193149D01*
X88754383Y-76211897D01*
X88885616Y-76174401D02*
X89148084Y-76174401D01*
X88979355Y-76568102D01*
%TO.C,C6*%
X83644383Y-118200607D02*
X83625635Y-118219355D01*
X83569392Y-118238102D01*
X83531897Y-118238102D01*
X83475654Y-118219355D01*
X83438158Y-118181859D01*
X83419411Y-118144364D01*
X83400663Y-118069373D01*
X83400663Y-118013130D01*
X83419411Y-117938140D01*
X83438158Y-117900644D01*
X83475654Y-117863149D01*
X83531897Y-117844401D01*
X83569392Y-117844401D01*
X83625635Y-117863149D01*
X83644383Y-117881897D01*
X83981841Y-117844401D02*
X83906850Y-117844401D01*
X83869355Y-117863149D01*
X83850607Y-117881897D01*
X83813112Y-117938140D01*
X83794364Y-118013130D01*
X83794364Y-118163112D01*
X83813112Y-118200607D01*
X83831859Y-118219355D01*
X83869355Y-118238102D01*
X83944345Y-118238102D01*
X83981841Y-118219355D01*
X84000588Y-118200607D01*
X84019336Y-118163112D01*
X84019336Y-118069373D01*
X84000588Y-118031878D01*
X83981841Y-118013130D01*
X83944345Y-117994383D01*
X83869355Y-117994383D01*
X83831859Y-118013130D01*
X83813112Y-118031878D01*
X83794364Y-118069373D01*
%TO.C,C5*%
X83644383Y-101260607D02*
X83625635Y-101279355D01*
X83569392Y-101298102D01*
X83531897Y-101298102D01*
X83475654Y-101279355D01*
X83438158Y-101241859D01*
X83419411Y-101204364D01*
X83400663Y-101129373D01*
X83400663Y-101073130D01*
X83419411Y-100998140D01*
X83438158Y-100960644D01*
X83475654Y-100923149D01*
X83531897Y-100904401D01*
X83569392Y-100904401D01*
X83625635Y-100923149D01*
X83644383Y-100941897D01*
X84000588Y-100904401D02*
X83813112Y-100904401D01*
X83794364Y-101091878D01*
X83813112Y-101073130D01*
X83850607Y-101054383D01*
X83944345Y-101054383D01*
X83981841Y-101073130D01*
X84000588Y-101091878D01*
X84019336Y-101129373D01*
X84019336Y-101223112D01*
X84000588Y-101260607D01*
X83981841Y-101279355D01*
X83944345Y-101298102D01*
X83850607Y-101298102D01*
X83813112Y-101279355D01*
X83794364Y-101260607D01*
%TO.C,C4*%
X83644383Y-84330607D02*
X83625635Y-84349355D01*
X83569392Y-84368102D01*
X83531897Y-84368102D01*
X83475654Y-84349355D01*
X83438158Y-84311859D01*
X83419411Y-84274364D01*
X83400663Y-84199373D01*
X83400663Y-84143130D01*
X83419411Y-84068140D01*
X83438158Y-84030644D01*
X83475654Y-83993149D01*
X83531897Y-83974401D01*
X83569392Y-83974401D01*
X83625635Y-83993149D01*
X83644383Y-84011897D01*
X83981841Y-84105635D02*
X83981841Y-84368102D01*
X83888102Y-83955654D02*
X83794364Y-84236869D01*
X84038084Y-84236869D01*
%TO.C,C3*%
X101514383Y-63940607D02*
X101495635Y-63959355D01*
X101439392Y-63978102D01*
X101401897Y-63978102D01*
X101345654Y-63959355D01*
X101308158Y-63921859D01*
X101289411Y-63884364D01*
X101270663Y-63809373D01*
X101270663Y-63753130D01*
X101289411Y-63678140D01*
X101308158Y-63640644D01*
X101345654Y-63603149D01*
X101401897Y-63584401D01*
X101439392Y-63584401D01*
X101495635Y-63603149D01*
X101514383Y-63621897D01*
X101645616Y-63584401D02*
X101889336Y-63584401D01*
X101758102Y-63734383D01*
X101814345Y-63734383D01*
X101851841Y-63753130D01*
X101870588Y-63771878D01*
X101889336Y-63809373D01*
X101889336Y-63903112D01*
X101870588Y-63940607D01*
X101851841Y-63959355D01*
X101814345Y-63978102D01*
X101701859Y-63978102D01*
X101664364Y-63959355D01*
X101645616Y-63940607D01*
%TO.C,C2*%
X88754383Y-59620607D02*
X88735635Y-59639355D01*
X88679392Y-59658102D01*
X88641897Y-59658102D01*
X88585654Y-59639355D01*
X88548158Y-59601859D01*
X88529411Y-59564364D01*
X88510663Y-59489373D01*
X88510663Y-59433130D01*
X88529411Y-59358140D01*
X88548158Y-59320644D01*
X88585654Y-59283149D01*
X88641897Y-59264401D01*
X88679392Y-59264401D01*
X88735635Y-59283149D01*
X88754383Y-59301897D01*
X88904364Y-59301897D02*
X88923112Y-59283149D01*
X88960607Y-59264401D01*
X89054345Y-59264401D01*
X89091841Y-59283149D01*
X89110588Y-59301897D01*
X89129336Y-59339392D01*
X89129336Y-59376887D01*
X89110588Y-59433130D01*
X88885616Y-59658102D01*
X89129336Y-59658102D01*
D11*
%TO.C,J8*%
X223857414Y-86332846D02*
X223857414Y-87048807D01*
X223809683Y-87191999D01*
X223714222Y-87287461D01*
X223571030Y-87335192D01*
X223475568Y-87335192D01*
X224477914Y-86762423D02*
X224382453Y-86714692D01*
X224334722Y-86666961D01*
X224286991Y-86571500D01*
X224286991Y-86523769D01*
X224334722Y-86428307D01*
X224382453Y-86380577D01*
X224477914Y-86332846D01*
X224668837Y-86332846D01*
X224764299Y-86380577D01*
X224812029Y-86428307D01*
X224859760Y-86523769D01*
X224859760Y-86571500D01*
X224812029Y-86666961D01*
X224764299Y-86714692D01*
X224668837Y-86762423D01*
X224477914Y-86762423D01*
X224382453Y-86810153D01*
X224334722Y-86857884D01*
X224286991Y-86953346D01*
X224286991Y-87144269D01*
X224334722Y-87239730D01*
X224382453Y-87287461D01*
X224477914Y-87335192D01*
X224668837Y-87335192D01*
X224764299Y-87287461D01*
X224812029Y-87239730D01*
X224859760Y-87144269D01*
X224859760Y-86953346D01*
X224812029Y-86857884D01*
X224764299Y-86810153D01*
X224668837Y-86762423D01*
%TO.C,J4*%
X75694354Y-124069346D02*
X75694354Y-124785307D01*
X75646623Y-124928499D01*
X75551162Y-125023961D01*
X75407970Y-125071692D01*
X75312508Y-125071692D01*
X76601239Y-124403461D02*
X76601239Y-125071692D01*
X76362585Y-124021615D02*
X76123931Y-124737576D01*
X76744431Y-124737576D01*
%TO.C,J3*%
X75694354Y-107136012D02*
X75694354Y-107851973D01*
X75646623Y-107995165D01*
X75551162Y-108090627D01*
X75407970Y-108138358D01*
X75312508Y-108138358D01*
X76076200Y-107136012D02*
X76696700Y-107136012D01*
X76362585Y-107517858D01*
X76505777Y-107517858D01*
X76601239Y-107565589D01*
X76648969Y-107613319D01*
X76696700Y-107708781D01*
X76696700Y-107947435D01*
X76648969Y-108042896D01*
X76601239Y-108090627D01*
X76505777Y-108138358D01*
X76219393Y-108138358D01*
X76123931Y-108090627D01*
X76076200Y-108042896D01*
%TO.C,J2*%
X75694354Y-90202679D02*
X75694354Y-90918640D01*
X75646623Y-91061832D01*
X75551162Y-91157294D01*
X75407970Y-91205025D01*
X75312508Y-91205025D01*
X76123931Y-90298140D02*
X76171662Y-90250410D01*
X76267123Y-90202679D01*
X76505777Y-90202679D01*
X76601239Y-90250410D01*
X76648969Y-90298140D01*
X76696700Y-90393602D01*
X76696700Y-90489063D01*
X76648969Y-90632256D01*
X76076200Y-91205025D01*
X76696700Y-91205025D01*
%TO.C,J1*%
X75694354Y-73269346D02*
X75694354Y-73985307D01*
X75646623Y-74128499D01*
X75551162Y-74223961D01*
X75407970Y-74271692D01*
X75312508Y-74271692D01*
X76696700Y-74271692D02*
X76123931Y-74271692D01*
X76410316Y-74271692D02*
X76410316Y-73269346D01*
X76314854Y-73412538D01*
X76219393Y-73508000D01*
X76123931Y-73555730D01*
%TO.C,U9*%
X154902380Y-73551904D02*
X155711904Y-73551904D01*
X155807142Y-73504285D01*
X155854761Y-73456666D01*
X155902380Y-73361428D01*
X155902380Y-73170952D01*
X155854761Y-73075714D01*
X155807142Y-73028095D01*
X155711904Y-72980476D01*
X154902380Y-72980476D01*
X155902380Y-72456666D02*
X155902380Y-72266190D01*
X155854761Y-72170952D01*
X155807142Y-72123333D01*
X155664285Y-72028095D01*
X155473809Y-71980476D01*
X155092857Y-71980476D01*
X154997619Y-72028095D01*
X154950000Y-72075714D01*
X154902380Y-72170952D01*
X154902380Y-72361428D01*
X154950000Y-72456666D01*
X154997619Y-72504285D01*
X155092857Y-72551904D01*
X155330952Y-72551904D01*
X155426190Y-72504285D01*
X155473809Y-72456666D01*
X155521428Y-72361428D01*
X155521428Y-72170952D01*
X155473809Y-72075714D01*
X155426190Y-72028095D01*
X155330952Y-71980476D01*
%TO.C,U15*%
X195021904Y-74572380D02*
X195021904Y-75381904D01*
X195069523Y-75477142D01*
X195117142Y-75524761D01*
X195212380Y-75572380D01*
X195402857Y-75572380D01*
X195498095Y-75524761D01*
X195545714Y-75477142D01*
X195593333Y-75381904D01*
X195593333Y-74572380D01*
X196593333Y-75572380D02*
X196021904Y-75572380D01*
X196307619Y-75572380D02*
X196307619Y-74572380D01*
X196212380Y-74715238D01*
X196117142Y-74810476D01*
X196021904Y-74858095D01*
X197498095Y-74572380D02*
X197021904Y-74572380D01*
X196974285Y-75048571D01*
X197021904Y-75000952D01*
X197117142Y-74953333D01*
X197355238Y-74953333D01*
X197450476Y-75000952D01*
X197498095Y-75048571D01*
X197545714Y-75143809D01*
X197545714Y-75381904D01*
X197498095Y-75477142D01*
X197450476Y-75524761D01*
X197355238Y-75572380D01*
X197117142Y-75572380D01*
X197021904Y-75524761D01*
X196974285Y-75477142D01*
%TO.C,U14*%
X177459503Y-76833436D02*
X177459503Y-78163566D01*
X177537746Y-78320052D01*
X177615989Y-78398295D01*
X177772475Y-78476538D01*
X178085446Y-78476538D01*
X178241932Y-78398295D01*
X178320175Y-78320052D01*
X178398418Y-78163566D01*
X178398418Y-76833436D01*
X180041520Y-78476538D02*
X179102605Y-78476538D01*
X179572062Y-78476538D02*
X179572062Y-76833436D01*
X179415577Y-77068164D01*
X179259091Y-77224650D01*
X179102605Y-77302893D01*
X181449893Y-77381136D02*
X181449893Y-78476538D01*
X181058679Y-76755193D02*
X180667464Y-77928837D01*
X181684622Y-77928837D01*
%TO.C,U13*%
X126661904Y-100362380D02*
X126661904Y-101171904D01*
X126709523Y-101267142D01*
X126757142Y-101314761D01*
X126852380Y-101362380D01*
X127042857Y-101362380D01*
X127138095Y-101314761D01*
X127185714Y-101267142D01*
X127233333Y-101171904D01*
X127233333Y-100362380D01*
X128233333Y-101362380D02*
X127661904Y-101362380D01*
X127947619Y-101362380D02*
X127947619Y-100362380D01*
X127852380Y-100505238D01*
X127757142Y-100600476D01*
X127661904Y-100648095D01*
X128566666Y-100362380D02*
X129185714Y-100362380D01*
X128852380Y-100743333D01*
X128995238Y-100743333D01*
X129090476Y-100790952D01*
X129138095Y-100838571D01*
X129185714Y-100933809D01*
X129185714Y-101171904D01*
X129138095Y-101267142D01*
X129090476Y-101314761D01*
X128995238Y-101362380D01*
X128709523Y-101362380D01*
X128614285Y-101314761D01*
X128566666Y-101267142D01*
%TO.C,U12*%
X126661904Y-83299880D02*
X126661904Y-84109404D01*
X126709523Y-84204642D01*
X126757142Y-84252261D01*
X126852380Y-84299880D01*
X127042857Y-84299880D01*
X127138095Y-84252261D01*
X127185714Y-84204642D01*
X127233333Y-84109404D01*
X127233333Y-83299880D01*
X128233333Y-84299880D02*
X127661904Y-84299880D01*
X127947619Y-84299880D02*
X127947619Y-83299880D01*
X127852380Y-83442738D01*
X127757142Y-83537976D01*
X127661904Y-83585595D01*
X128614285Y-83395119D02*
X128661904Y-83347500D01*
X128757142Y-83299880D01*
X128995238Y-83299880D01*
X129090476Y-83347500D01*
X129138095Y-83395119D01*
X129185714Y-83490357D01*
X129185714Y-83585595D01*
X129138095Y-83728452D01*
X128566666Y-84299880D01*
X129185714Y-84299880D01*
%TO.C,U11*%
X130121904Y-57822380D02*
X130121904Y-58631904D01*
X130169523Y-58727142D01*
X130217142Y-58774761D01*
X130312380Y-58822380D01*
X130502857Y-58822380D01*
X130598095Y-58774761D01*
X130645714Y-58727142D01*
X130693333Y-58631904D01*
X130693333Y-57822380D01*
X131693333Y-58822380D02*
X131121904Y-58822380D01*
X131407619Y-58822380D02*
X131407619Y-57822380D01*
X131312380Y-57965238D01*
X131217142Y-58060476D01*
X131121904Y-58108095D01*
X132645714Y-58822380D02*
X132074285Y-58822380D01*
X132360000Y-58822380D02*
X132360000Y-57822380D01*
X132264761Y-57965238D01*
X132169523Y-58060476D01*
X132074285Y-58108095D01*
%TO.C,U10*%
X92521904Y-114242380D02*
X92521904Y-115051904D01*
X92569523Y-115147142D01*
X92617142Y-115194761D01*
X92712380Y-115242380D01*
X92902857Y-115242380D01*
X92998095Y-115194761D01*
X93045714Y-115147142D01*
X93093333Y-115051904D01*
X93093333Y-114242380D01*
X94093333Y-115242380D02*
X93521904Y-115242380D01*
X93807619Y-115242380D02*
X93807619Y-114242380D01*
X93712380Y-114385238D01*
X93617142Y-114480476D01*
X93521904Y-114528095D01*
X94712380Y-114242380D02*
X94807619Y-114242380D01*
X94902857Y-114290000D01*
X94950476Y-114337619D01*
X94998095Y-114432857D01*
X95045714Y-114623333D01*
X95045714Y-114861428D01*
X94998095Y-115051904D01*
X94950476Y-115147142D01*
X94902857Y-115194761D01*
X94807619Y-115242380D01*
X94712380Y-115242380D01*
X94617142Y-115194761D01*
X94569523Y-115147142D01*
X94521904Y-115051904D01*
X94474285Y-114861428D01*
X94474285Y-114623333D01*
X94521904Y-114432857D01*
X94569523Y-114337619D01*
X94617142Y-114290000D01*
X94712380Y-114242380D01*
%TO.C,U8*%
X92998095Y-97332380D02*
X92998095Y-98141904D01*
X93045714Y-98237142D01*
X93093333Y-98284761D01*
X93188571Y-98332380D01*
X93379047Y-98332380D01*
X93474285Y-98284761D01*
X93521904Y-98237142D01*
X93569523Y-98141904D01*
X93569523Y-97332380D01*
X94188571Y-97760952D02*
X94093333Y-97713333D01*
X94045714Y-97665714D01*
X93998095Y-97570476D01*
X93998095Y-97522857D01*
X94045714Y-97427619D01*
X94093333Y-97380000D01*
X94188571Y-97332380D01*
X94379047Y-97332380D01*
X94474285Y-97380000D01*
X94521904Y-97427619D01*
X94569523Y-97522857D01*
X94569523Y-97570476D01*
X94521904Y-97665714D01*
X94474285Y-97713333D01*
X94379047Y-97760952D01*
X94188571Y-97760952D01*
X94093333Y-97808571D01*
X94045714Y-97856190D01*
X93998095Y-97951428D01*
X93998095Y-98141904D01*
X94045714Y-98237142D01*
X94093333Y-98284761D01*
X94188571Y-98332380D01*
X94379047Y-98332380D01*
X94474285Y-98284761D01*
X94521904Y-98237142D01*
X94569523Y-98141904D01*
X94569523Y-97951428D01*
X94521904Y-97856190D01*
X94474285Y-97808571D01*
X94379047Y-97760952D01*
%TO.C,U7*%
X92998095Y-80422380D02*
X92998095Y-81231904D01*
X93045714Y-81327142D01*
X93093333Y-81374761D01*
X93188571Y-81422380D01*
X93379047Y-81422380D01*
X93474285Y-81374761D01*
X93521904Y-81327142D01*
X93569523Y-81231904D01*
X93569523Y-80422380D01*
X93950476Y-80422380D02*
X94617142Y-80422380D01*
X94188571Y-81422380D01*
%TO.C,U6*%
X83778095Y-106132380D02*
X83778095Y-106941904D01*
X83825714Y-107037142D01*
X83873333Y-107084761D01*
X83968571Y-107132380D01*
X84159047Y-107132380D01*
X84254285Y-107084761D01*
X84301904Y-107037142D01*
X84349523Y-106941904D01*
X84349523Y-106132380D01*
X85254285Y-106132380D02*
X85063809Y-106132380D01*
X84968571Y-106180000D01*
X84920952Y-106227619D01*
X84825714Y-106370476D01*
X84778095Y-106560952D01*
X84778095Y-106941904D01*
X84825714Y-107037142D01*
X84873333Y-107084761D01*
X84968571Y-107132380D01*
X85159047Y-107132380D01*
X85254285Y-107084761D01*
X85301904Y-107037142D01*
X85349523Y-106941904D01*
X85349523Y-106703809D01*
X85301904Y-106608571D01*
X85254285Y-106560952D01*
X85159047Y-106513333D01*
X84968571Y-106513333D01*
X84873333Y-106560952D01*
X84825714Y-106608571D01*
X84778095Y-106703809D01*
%TO.C,U5*%
X83778095Y-89192380D02*
X83778095Y-90001904D01*
X83825714Y-90097142D01*
X83873333Y-90144761D01*
X83968571Y-90192380D01*
X84159047Y-90192380D01*
X84254285Y-90144761D01*
X84301904Y-90097142D01*
X84349523Y-90001904D01*
X84349523Y-89192380D01*
X85301904Y-89192380D02*
X84825714Y-89192380D01*
X84778095Y-89668571D01*
X84825714Y-89620952D01*
X84920952Y-89573333D01*
X85159047Y-89573333D01*
X85254285Y-89620952D01*
X85301904Y-89668571D01*
X85349523Y-89763809D01*
X85349523Y-90001904D01*
X85301904Y-90097142D01*
X85254285Y-90144761D01*
X85159047Y-90192380D01*
X84920952Y-90192380D01*
X84825714Y-90144761D01*
X84778095Y-90097142D01*
%TO.C,U4*%
X83778095Y-72252380D02*
X83778095Y-73061904D01*
X83825714Y-73157142D01*
X83873333Y-73204761D01*
X83968571Y-73252380D01*
X84159047Y-73252380D01*
X84254285Y-73204761D01*
X84301904Y-73157142D01*
X84349523Y-73061904D01*
X84349523Y-72252380D01*
X85254285Y-72585714D02*
X85254285Y-73252380D01*
X85016190Y-72204761D02*
X84778095Y-72919047D01*
X85397142Y-72919047D01*
%TO.C,U3*%
X92998095Y-63512380D02*
X92998095Y-64321904D01*
X93045714Y-64417142D01*
X93093333Y-64464761D01*
X93188571Y-64512380D01*
X93379047Y-64512380D01*
X93474285Y-64464761D01*
X93521904Y-64417142D01*
X93569523Y-64321904D01*
X93569523Y-63512380D01*
X93950476Y-63512380D02*
X94569523Y-63512380D01*
X94236190Y-63893333D01*
X94379047Y-63893333D01*
X94474285Y-63940952D01*
X94521904Y-63988571D01*
X94569523Y-64083809D01*
X94569523Y-64321904D01*
X94521904Y-64417142D01*
X94474285Y-64464761D01*
X94379047Y-64512380D01*
X94093333Y-64512380D01*
X93998095Y-64464761D01*
X93950476Y-64417142D01*
%TO.C,U2*%
X127138095Y-49522380D02*
X127138095Y-50331904D01*
X127185714Y-50427142D01*
X127233333Y-50474761D01*
X127328571Y-50522380D01*
X127519047Y-50522380D01*
X127614285Y-50474761D01*
X127661904Y-50427142D01*
X127709523Y-50331904D01*
X127709523Y-49522380D01*
X128138095Y-49617619D02*
X128185714Y-49570000D01*
X128280952Y-49522380D01*
X128519047Y-49522380D01*
X128614285Y-49570000D01*
X128661904Y-49617619D01*
X128709523Y-49712857D01*
X128709523Y-49808095D01*
X128661904Y-49950952D01*
X128090476Y-50522380D01*
X128709523Y-50522380D01*
%TO.C,U1*%
X83778095Y-55342380D02*
X83778095Y-56151904D01*
X83825714Y-56247142D01*
X83873333Y-56294761D01*
X83968571Y-56342380D01*
X84159047Y-56342380D01*
X84254285Y-56294761D01*
X84301904Y-56247142D01*
X84349523Y-56151904D01*
X84349523Y-55342380D01*
X85349523Y-56342380D02*
X84778095Y-56342380D01*
X85063809Y-56342380D02*
X85063809Y-55342380D01*
X84968571Y-55485238D01*
X84873333Y-55580476D01*
X84778095Y-55628095D01*
%TO.C,TP1*%
X181318095Y-73994380D02*
X181889523Y-73994380D01*
X181603809Y-74994380D02*
X181603809Y-73994380D01*
X182222857Y-74994380D02*
X182222857Y-73994380D01*
X182603809Y-73994380D01*
X182699047Y-74042000D01*
X182746666Y-74089619D01*
X182794285Y-74184857D01*
X182794285Y-74327714D01*
X182746666Y-74422952D01*
X182699047Y-74470571D01*
X182603809Y-74518190D01*
X182222857Y-74518190D01*
X183746666Y-74994380D02*
X183175238Y-74994380D01*
X183460952Y-74994380D02*
X183460952Y-73994380D01*
X183365714Y-74137238D01*
X183270476Y-74232476D01*
X183175238Y-74280095D01*
%TO.C,MOD1*%
X180846666Y-39732380D02*
X180846666Y-38732380D01*
X181180000Y-39446666D01*
X181513333Y-38732380D01*
X181513333Y-39732380D01*
X182180000Y-38732380D02*
X182370476Y-38732380D01*
X182465714Y-38780000D01*
X182560952Y-38875238D01*
X182608571Y-39065714D01*
X182608571Y-39399047D01*
X182560952Y-39589523D01*
X182465714Y-39684761D01*
X182370476Y-39732380D01*
X182180000Y-39732380D01*
X182084761Y-39684761D01*
X181989523Y-39589523D01*
X181941904Y-39399047D01*
X181941904Y-39065714D01*
X181989523Y-38875238D01*
X182084761Y-38780000D01*
X182180000Y-38732380D01*
X183037142Y-39732380D02*
X183037142Y-38732380D01*
X183275238Y-38732380D01*
X183418095Y-38780000D01*
X183513333Y-38875238D01*
X183560952Y-38970476D01*
X183608571Y-39160952D01*
X183608571Y-39303809D01*
X183560952Y-39494285D01*
X183513333Y-39589523D01*
X183418095Y-39684761D01*
X183275238Y-39732380D01*
X183037142Y-39732380D01*
X184560952Y-39732380D02*
X183989523Y-39732380D01*
X184275238Y-39732380D02*
X184275238Y-38732380D01*
X184180000Y-38875238D01*
X184084761Y-38970476D01*
X183989523Y-39018095D01*
%TO.C,J5*%
X208426666Y-64122380D02*
X208426666Y-64836666D01*
X208379047Y-64979523D01*
X208283809Y-65074761D01*
X208140952Y-65122380D01*
X208045714Y-65122380D01*
X209379047Y-64122380D02*
X208902857Y-64122380D01*
X208855238Y-64598571D01*
X208902857Y-64550952D01*
X208998095Y-64503333D01*
X209236190Y-64503333D01*
X209331428Y-64550952D01*
X209379047Y-64598571D01*
X209426666Y-64693809D01*
X209426666Y-64931904D01*
X209379047Y-65027142D01*
X209331428Y-65074761D01*
X209236190Y-65122380D01*
X208998095Y-65122380D01*
X208902857Y-65074761D01*
X208855238Y-65027142D01*
%TO.C,D1*%
X201281904Y-55692380D02*
X201281904Y-54692380D01*
X201520000Y-54692380D01*
X201662857Y-54740000D01*
X201758095Y-54835238D01*
X201805714Y-54930476D01*
X201853333Y-55120952D01*
X201853333Y-55263809D01*
X201805714Y-55454285D01*
X201758095Y-55549523D01*
X201662857Y-55644761D01*
X201520000Y-55692380D01*
X201281904Y-55692380D01*
X202805714Y-55692380D02*
X202234285Y-55692380D01*
X202520000Y-55692380D02*
X202520000Y-54692380D01*
X202424761Y-54835238D01*
X202329523Y-54930476D01*
X202234285Y-54978095D01*
D12*
%TO.C,L4*%
X89180000Y-112510000D02*
X89300000Y-112510000D01*
X89180000Y-114190000D02*
X89300000Y-114190000D01*
%TO.C,L3*%
X89180000Y-95570000D02*
X89300000Y-95570000D01*
X89180000Y-97250000D02*
X89300000Y-97250000D01*
%TO.C,L2*%
X89180000Y-78630000D02*
X89300000Y-78630000D01*
X89180000Y-80310000D02*
X89300000Y-80310000D01*
%TO.C,L1*%
X89180000Y-61720000D02*
X89300000Y-61720000D01*
X89180000Y-63400000D02*
X89300000Y-63400000D01*
%TO.C,R9*%
X195120000Y-60460000D02*
X195360000Y-60460000D01*
X195120000Y-61820000D02*
X195360000Y-61820000D01*
%TO.C,R8*%
X195370000Y-59680000D02*
X195130000Y-59680000D01*
X195370000Y-58320000D02*
X195130000Y-58320000D01*
%TO.C,R7*%
X170530000Y-52250000D02*
X170770000Y-52250000D01*
X170530000Y-53610000D02*
X170770000Y-53610000D01*
%TO.C,R6*%
X170530000Y-48300000D02*
X170770000Y-48300000D01*
X170530000Y-49660000D02*
X170770000Y-49660000D01*
%TO.C,R5*%
X212050000Y-50710000D02*
X212050000Y-50470000D01*
X213410000Y-50710000D02*
X213410000Y-50470000D01*
D13*
%TO.C,J7*%
X223550000Y-84770000D02*
X224550000Y-84770000D01*
X230850000Y-84770000D02*
X230850000Y-84270000D01*
X223550000Y-75570000D02*
X224550000Y-75570000D01*
X221850000Y-78970000D02*
X221850000Y-81370000D01*
X216250000Y-84770000D02*
X216750000Y-84770000D01*
X230850000Y-75570000D02*
X230350000Y-75570000D01*
X230850000Y-84770000D02*
X230350000Y-84770000D01*
X216250000Y-75570000D02*
X216750000Y-75570000D01*
X216250000Y-75570000D02*
X216250000Y-76070000D01*
X230850000Y-75570000D02*
X230850000Y-76070000D01*
X216250000Y-84770000D02*
X216250000Y-84270000D01*
%TO.C,J6*%
X223550000Y-72930000D02*
X224550000Y-72930000D01*
X230850000Y-72930000D02*
X230850000Y-72430000D01*
X223550000Y-63730000D02*
X224550000Y-63730000D01*
X221850000Y-67130000D02*
X221850000Y-69530000D01*
X216250000Y-72930000D02*
X216750000Y-72930000D01*
X230850000Y-63730000D02*
X230350000Y-63730000D01*
X230850000Y-72930000D02*
X230350000Y-72930000D01*
X216250000Y-63730000D02*
X216750000Y-63730000D01*
X216250000Y-63730000D02*
X216250000Y-64230000D01*
X230850000Y-63730000D02*
X230850000Y-64230000D01*
X216250000Y-72930000D02*
X216250000Y-72430000D01*
D14*
%TO.C,C19*%
X205810000Y-70040000D02*
X205810000Y-71140000D01*
%TO.C,C18*%
X169070000Y-66130000D02*
X169070000Y-65030000D01*
%TO.C,C14*%
X185320000Y-84040000D02*
X185320000Y-85140000D01*
%TO.C,C13*%
X185310000Y-79320000D02*
X185310000Y-80420000D01*
D15*
%TO.C,U9*%
X165150000Y-93390000D02*
X165150000Y-93990000D01*
X154550000Y-75190000D02*
X153950000Y-75190000D01*
X165150000Y-93990000D02*
X164550000Y-93990000D01*
X153950000Y-93990000D02*
X153950000Y-93390000D01*
X154550000Y-93990000D02*
X153950000Y-93990000D01*
X164550000Y-75190000D02*
X165150000Y-75190000D01*
X165150000Y-75190000D02*
X165150000Y-75790000D01*
X153950000Y-75190000D02*
X153950000Y-75790000D01*
D16*
X166075000Y-94690000D02*
G75*
G03*
X166075000Y-94690000I-125000J0D01*
G01*
D15*
%TO.C,U15*%
X197230000Y-67170000D02*
X198730000Y-67170000D01*
X198730000Y-74070000D02*
X198730000Y-73800000D01*
X198730000Y-73800000D02*
X201560000Y-73800000D01*
X198730000Y-67170000D02*
X198730000Y-67440000D01*
X197230000Y-74070000D02*
X198730000Y-74070000D01*
X198730000Y-67440000D02*
X199830000Y-67440000D01*
D17*
%TO.C,U14*%
X175959900Y-85770000D02*
X179515900Y-85770000D01*
X179515900Y-80690000D02*
X178042700Y-80690000D01*
X178042700Y-80690000D02*
X177433100Y-80690000D01*
X177433100Y-80690000D02*
X175959900Y-80690000D01*
D13*
X177433100Y-80690000D02*
G75*
G03*
X178042700Y-80690000I304800J0D01*
G01*
D15*
%TO.C,U10*%
X100660000Y-118790000D02*
X100760000Y-118790000D01*
X96960000Y-122490000D02*
X96960000Y-122590000D01*
X96960000Y-122590000D02*
X97060000Y-122590000D01*
X100760000Y-122590000D02*
X100760000Y-122490000D01*
X97060000Y-118790000D02*
X96960000Y-118790000D01*
X100760000Y-118790000D02*
X100760000Y-118890000D01*
X100660000Y-122590000D02*
X100760000Y-122590000D01*
X96960000Y-118790000D02*
X96960000Y-118890000D01*
D16*
X96785000Y-118390000D02*
G75*
G03*
X96785000Y-118390000I-125000J0D01*
G01*
D15*
%TO.C,U8*%
X100660000Y-101880000D02*
X100760000Y-101880000D01*
X96960000Y-105580000D02*
X96960000Y-105680000D01*
X96960000Y-105680000D02*
X97060000Y-105680000D01*
X100760000Y-105680000D02*
X100760000Y-105580000D01*
X97060000Y-101880000D02*
X96960000Y-101880000D01*
X100760000Y-101880000D02*
X100760000Y-101980000D01*
X100660000Y-105680000D02*
X100760000Y-105680000D01*
X96960000Y-101880000D02*
X96960000Y-101980000D01*
D16*
X96785000Y-101480000D02*
G75*
G03*
X96785000Y-101480000I-125000J0D01*
G01*
D15*
%TO.C,U7*%
X100660000Y-84970000D02*
X100760000Y-84970000D01*
X96960000Y-88670000D02*
X96960000Y-88770000D01*
X96960000Y-88770000D02*
X97060000Y-88770000D01*
X100760000Y-88770000D02*
X100760000Y-88670000D01*
X97060000Y-84970000D02*
X96960000Y-84970000D01*
X100760000Y-84970000D02*
X100760000Y-85070000D01*
X100660000Y-88770000D02*
X100760000Y-88770000D01*
X96960000Y-84970000D02*
X96960000Y-85070000D01*
D16*
X96785000Y-84570000D02*
G75*
G03*
X96785000Y-84570000I-125000J0D01*
G01*
D15*
%TO.C,U6*%
X93660000Y-120880000D02*
X93360000Y-120880000D01*
X93660000Y-117880000D02*
X93660000Y-118180000D01*
X93660000Y-120580000D02*
X93660000Y-120880000D01*
X90660000Y-120580000D02*
X90660000Y-120880000D01*
X90660000Y-120880000D02*
X90960000Y-120880000D01*
X93360000Y-117880000D02*
X93660000Y-117880000D01*
X90660000Y-117880000D02*
X90960000Y-117880000D01*
X90660000Y-118180000D02*
X90660000Y-117880000D01*
D16*
X90485000Y-117480000D02*
G75*
G03*
X90485000Y-117480000I-125000J0D01*
G01*
D15*
%TO.C,U5*%
X93660000Y-103940000D02*
X93360000Y-103940000D01*
X93660000Y-100940000D02*
X93660000Y-101240000D01*
X93660000Y-103640000D02*
X93660000Y-103940000D01*
X90660000Y-103640000D02*
X90660000Y-103940000D01*
X90660000Y-103940000D02*
X90960000Y-103940000D01*
X93360000Y-100940000D02*
X93660000Y-100940000D01*
X90660000Y-100940000D02*
X90960000Y-100940000D01*
X90660000Y-101240000D02*
X90660000Y-100940000D01*
D16*
X90485000Y-100540000D02*
G75*
G03*
X90485000Y-100540000I-125000J0D01*
G01*
%TO.C,U4*%
X90485000Y-83600000D02*
G75*
G03*
X90485000Y-83600000I-125000J0D01*
G01*
D15*
X90660000Y-84300000D02*
X90660000Y-84000000D01*
X90660000Y-84000000D02*
X90960000Y-84000000D01*
X93360000Y-84000000D02*
X93660000Y-84000000D01*
X90660000Y-87000000D02*
X90960000Y-87000000D01*
X90660000Y-86700000D02*
X90660000Y-87000000D01*
X93660000Y-86700000D02*
X93660000Y-87000000D01*
X93660000Y-84000000D02*
X93660000Y-84300000D01*
X93660000Y-87000000D02*
X93360000Y-87000000D01*
%TO.C,U3*%
X100660000Y-68060000D02*
X100760000Y-68060000D01*
X96960000Y-71760000D02*
X96960000Y-71860000D01*
X96960000Y-71860000D02*
X97060000Y-71860000D01*
X100760000Y-71860000D02*
X100760000Y-71760000D01*
X97060000Y-68060000D02*
X96960000Y-68060000D01*
X100760000Y-68060000D02*
X100760000Y-68160000D01*
X100660000Y-71860000D02*
X100760000Y-71860000D01*
X96960000Y-68060000D02*
X96960000Y-68160000D01*
D16*
X96785000Y-67660000D02*
G75*
G03*
X96785000Y-67660000I-125000J0D01*
G01*
D15*
%TO.C,U1*%
X93660000Y-70090000D02*
X93360000Y-70090000D01*
X93660000Y-67090000D02*
X93660000Y-67390000D01*
X93660000Y-69790000D02*
X93660000Y-70090000D01*
X90660000Y-69790000D02*
X90660000Y-70090000D01*
X90660000Y-70090000D02*
X90960000Y-70090000D01*
X93360000Y-67090000D02*
X93660000Y-67090000D01*
X90660000Y-67090000D02*
X90960000Y-67090000D01*
X90660000Y-67390000D02*
X90660000Y-67090000D01*
D16*
X90485000Y-66690000D02*
G75*
G03*
X90485000Y-66690000I-125000J0D01*
G01*
D15*
%TO.C,TP1*%
X183280000Y-76690000D02*
X181880000Y-76690000D01*
X183280000Y-75290000D02*
X183280000Y-76690000D01*
X181880000Y-76690000D02*
X181880000Y-75290000D01*
X181880000Y-75290000D02*
X183280000Y-75290000D01*
D13*
%TO.C,MOD1*%
X175480000Y-41380000D02*
X175230000Y-41380000D01*
X175230000Y-41380000D02*
X174580000Y-42030000D01*
X174580000Y-42030000D02*
X174580000Y-42380000D01*
X182680000Y-65580000D02*
X182180000Y-65580000D01*
X182680000Y-65580000D02*
X183180000Y-65580000D01*
X182680000Y-41380000D02*
X182180000Y-41380000D01*
X182680000Y-41380000D02*
X183180000Y-41380000D01*
X190780000Y-65580000D02*
X190780000Y-65080000D01*
X190780000Y-65580000D02*
X190280000Y-65580000D01*
X174580000Y-65580000D02*
X174580000Y-65080000D01*
X174580000Y-65580000D02*
X175080000Y-65580000D01*
X174580000Y-48380000D02*
X174580000Y-47880000D01*
X174580000Y-48380000D02*
X174080000Y-48380000D01*
X190780000Y-41380000D02*
X190780000Y-41880000D01*
X190780000Y-41380000D02*
X190280000Y-41380000D01*
D15*
%TO.C,J5*%
X210090000Y-61070000D02*
X210090000Y-48310000D01*
X210090000Y-62340000D02*
X210090000Y-63670000D01*
X210090000Y-63670000D02*
X208760000Y-63670000D01*
X210090000Y-61070000D02*
X207430000Y-61070000D01*
X210090000Y-48310000D02*
X207430000Y-48310000D01*
X207430000Y-61070000D02*
X207430000Y-48310000D01*
%TO.C,D1*%
X199770000Y-56240000D02*
X203670000Y-56240000D01*
X199770000Y-56240000D02*
X199770000Y-58240000D01*
X199770000Y-58240000D02*
X203670000Y-58240000D01*
%TD*%
M02*
