M48
; DRILL file {KiCad 6.0.11} date Fri 03 Feb 2023 09:16:31 AM EST
; FORMAT={-:-/ absolute / inch / decimal}
; #@! TF.CreationDate,2023-02-03T09:16:31-05:00
; #@! TF.GenerationSoftware,Kicad,Pcbnew,6.0.11
; #@! TF.FileFunction,Plated,1,4,PTH
FMAT,2
INCH
; #@! TA.AperFunction,Plated,PTH,ComponentDrill
T1C0.0150
; #@! TA.AperFunction,Plated,PTH,ViaDrill
T2C0.0157
; #@! TA.AperFunction,Plated,PTH,ComponentDrill
T3C0.0197
; #@! TA.AperFunction,Plated,PTH,ComponentDrill
T4C0.0200
; #@! TA.AperFunction,Plated,PTH,ComponentDrill
T5C0.0394
; #@! TA.AperFunction,Plated,PTH,ComponentDrill
T6C0.0449
; #@! TA.AperFunction,Plated,PTH,ViaDrill
T7C0.1102
; #@! TA.AperFunction,Plated,PTH,ComponentDrill
T8C0.1260
%
G90
G05
T1
X3.6093Y-2.6814
X3.6093Y-2.7194
X3.6093Y-2.7954
X3.6093Y-3.3471
X3.6093Y-3.3851
X3.6093Y-3.4611
X3.6093Y-4.0141
X3.6093Y-4.0521
X3.6093Y-4.1281
X3.6093Y-4.681
X3.6093Y-4.719
X3.6093Y-4.795
X3.6473Y-2.6814
X3.6473Y-2.7194
X3.6473Y-2.7954
X3.6473Y-3.3471
X3.6473Y-3.3851
X3.6473Y-3.4611
X3.6473Y-4.0141
X3.6473Y-4.0521
X3.6473Y-4.1281
X3.6473Y-4.681
X3.6473Y-4.719
X3.6473Y-4.795
T2
X3.315Y-2.289
X3.3185Y-3.6232
X3.3287Y-4.2882
X3.3307Y-2.9563
X3.3657Y-2.289
X3.3713Y-3.6228
X3.3783Y-2.9551
X3.3803Y-4.2886
X3.7264Y-4.2898
X3.7276Y-2.9551
X3.7295Y-3.6217
X3.7378Y-2.289
X3.7827Y-4.2894
X3.787Y-2.289
X3.7878Y-2.9551
X3.7882Y-3.622
X3.9417Y-4.8594
X3.9421Y-2.8681
X3.9421Y-4.2567
X3.9421Y-4.9039
X3.9425Y-2.915
X3.9429Y-4.2071
X3.9433Y-3.5358
X3.9433Y-3.585
X4.7157Y-4.0618
X4.7173Y-3.4386
X4.7187Y-2.7031
X4.7189Y-2.0811
X4.8154Y-4.0618
X4.8157Y-3.9874
X4.8157Y-4.6634
X4.8163Y-3.3805
X4.8167Y-2.6671
X4.8167Y-3.4386
X4.8178Y-2.7043
X4.818Y-2.0831
X4.915Y-4.0618
X4.9157Y-3.3805
X4.9161Y-2.6671
X4.9161Y-3.4415
X4.9161Y-4.665
X4.9169Y-2.7028
X4.9169Y-3.9913
X4.9171Y-2.0815
X5.0147Y-4.0618
X5.0154Y-2.6413
X5.0156Y-3.4398
X5.0159Y-2.7028
X5.0161Y-2.0815
X5.0161Y-3.3382
X5.0177Y-3.9929
X5.0177Y-4.6669
X5.1138Y-3.9874
X5.1138Y-4.0618
X5.115Y-3.4417
X5.115Y-2.7028
X5.1152Y-2.0815
X5.1157Y-2.6685
X5.1161Y-3.3841
X5.1165Y-4.6705
X5.2139Y-4.0618
X5.2141Y-2.7028
X5.2143Y-2.0815
X5.2144Y-3.4417
X5.2157Y-2.6409
X5.2157Y-3.3382
X5.2185Y-3.9917
X5.2185Y-4.6654
X5.3132Y-2.7035
X5.3134Y-2.0815
X5.3136Y-4.0618
X5.3138Y-3.4437
X6.5476Y-2.4634
X6.5484Y-2.5819
X6.613Y-2.0827
X6.6142Y-1.9283
X6.6894Y-2.6531
X6.6909Y-2.3925
X6.8256Y-2.5126
X6.8303Y-3.3215
X6.8681Y-3.4689
X6.8748Y-3.1512
X6.9516Y-3.1287
X6.9748Y-3.437
X7.0252Y-3.4598
X7.2594Y-3.5028
X7.3925Y-3.3307
X7.3925Y-3.4224
X7.3933Y-3.1449
X7.3945Y-3.235
X7.4264Y-2.8201
X7.5764Y-2.4768
X7.661Y-2.2354
X7.7854Y-2.3209
X7.7858Y-2.4071
X7.985Y-2.7783
X7.985Y-2.8681
X8.2024Y-2.7795
X8.3772Y-2.0898
T3
X7.1882Y-2.9917
T4
X4.7157Y-2.2867
X4.7157Y-2.3317
X4.7157Y-2.4218
X4.7157Y-2.4668
X4.7157Y-2.9537
X4.7157Y-2.9987
X4.7157Y-3.0887
X4.7157Y-3.1337
X4.7157Y-3.6166
X4.7157Y-3.6616
X4.7157Y-3.7516
X4.7157Y-3.7966
X4.7157Y-4.2883
X4.7157Y-4.3333
X4.7157Y-4.4234
X4.7157Y-4.4684
X4.8157Y-2.2867
X4.8157Y-2.3317
X4.8157Y-2.4218
X4.8157Y-2.4668
X4.8157Y-2.9537
X4.8157Y-2.9987
X4.8157Y-3.0887
X4.8157Y-3.1337
X4.8157Y-3.6166
X4.8157Y-3.6616
X4.8157Y-3.7516
X4.8157Y-3.7966
X4.8157Y-4.2883
X4.8157Y-4.3333
X4.8157Y-4.4234
X4.8157Y-4.4684
X4.9157Y-2.2867
X4.9157Y-2.3317
X4.9157Y-2.4218
X4.9157Y-2.4668
X4.9157Y-2.9537
X4.9157Y-2.9987
X4.9157Y-3.0887
X4.9157Y-3.1337
X4.9157Y-3.6166
X4.9157Y-3.6616
X4.9157Y-3.7516
X4.9157Y-3.7966
X4.9157Y-4.2883
X4.9157Y-4.3333
X4.9157Y-4.4234
X4.9157Y-4.4684
X5.0157Y-2.2867
X5.0157Y-2.3317
X5.0157Y-2.4218
X5.0157Y-2.4668
X5.0157Y-2.9537
X5.0157Y-2.9987
X5.0157Y-3.0887
X5.0157Y-3.1337
X5.0157Y-3.6166
X5.0157Y-3.6616
X5.0157Y-3.7516
X5.0157Y-3.7966
X5.0157Y-4.2883
X5.0157Y-4.3333
X5.0157Y-4.4234
X5.0157Y-4.4684
X5.1157Y-2.2867
X5.1157Y-2.3317
X5.1157Y-2.4218
X5.1157Y-2.4668
X5.1157Y-2.9537
X5.1157Y-2.9987
X5.1157Y-3.0887
X5.1157Y-3.1337
X5.1157Y-3.6166
X5.1157Y-3.6616
X5.1157Y-3.7516
X5.1157Y-3.7966
X5.1157Y-4.2883
X5.1157Y-4.3333
X5.1157Y-4.4234
X5.1157Y-4.4684
X5.2157Y-2.2867
X5.2157Y-2.3317
X5.2157Y-2.4218
X5.2157Y-2.4668
X5.2157Y-2.9537
X5.2157Y-2.9987
X5.2157Y-3.0887
X5.2157Y-3.1337
X5.2157Y-3.6166
X5.2157Y-3.6616
X5.2157Y-3.7516
X5.2157Y-3.7966
X5.2157Y-4.2883
X5.2157Y-4.3333
X5.2157Y-4.4234
X5.2157Y-4.4684
X5.3157Y-2.2867
X5.3157Y-2.3317
X5.3157Y-2.4218
X5.3157Y-2.4668
X5.3157Y-2.9537
X5.3157Y-2.9987
X5.3157Y-3.0887
X5.3157Y-3.1337
X5.3157Y-3.6166
X5.3157Y-3.6616
X5.3157Y-3.7516
X5.3157Y-3.7966
X5.3157Y-4.2883
X5.3157Y-4.3333
X5.3157Y-4.4234
X5.3157Y-4.4684
X5.8878Y-3.3303
X5.9508Y-3.1311
X5.9508Y-3.3303
X5.9508Y-3.5311
X6.0217Y-3.1311
X6.0217Y-3.3303
X6.0217Y-3.5311
X6.0965Y-3.1303
X6.0965Y-3.3303
X6.0965Y-3.5303
X6.1941Y-3.0303
X6.1941Y-3.1303
X6.1941Y-3.2303
X6.1941Y-3.3303
X6.1941Y-3.4287
X6.1941Y-3.5303
X6.1941Y-3.6303
X6.372Y-3.0303
X6.372Y-3.1303
X6.372Y-3.2303
X6.372Y-3.3303
X6.372Y-3.4287
X6.372Y-3.5303
X6.372Y-3.6303
X6.4547Y-3.1303
X6.4547Y-3.3303
X6.4547Y-3.5303
X6.5374Y-3.0303
X6.5374Y-3.1303
X6.5374Y-3.2303
X6.5374Y-3.3303
X6.5374Y-3.5303
X6.5374Y-3.6303
T5
X8.2189Y-1.9543
X8.2189Y-2.0543
X8.2189Y-2.1543
X8.2189Y-2.2543
X8.2189Y-2.3543
X8.2189Y-2.4543
T6
X2.9419Y-2.6435
X2.9419Y-2.7565
X2.9419Y-3.3102
X2.9419Y-3.4232
X2.9419Y-3.9768
X2.9419Y-4.0898
X2.9419Y-4.6435
X2.9419Y-4.7565
X3.0321Y-2.6435
X3.0321Y-2.7565
X3.0321Y-3.3102
X3.0321Y-3.4232
X3.0321Y-3.9768
X3.0321Y-4.0898
X3.0321Y-4.6435
X3.0321Y-4.7565
X8.7876Y-3.5703
X8.7876Y-3.6833
X8.8778Y-3.5703
X8.8778Y-3.6833
T7
X7.6429Y-2.9909
T8
X2.9921Y-2.0079
X2.9921Y-5.0394
X8.8189Y-2.0079
X8.8189Y-5.0394
T5
G00X8.5453Y-2.6409
M15
G01X8.5453Y-2.7394
M16
G05
G00X8.5453Y-3.1071
M15
G01X8.5453Y-3.2055
M16
G05
G00X8.7126Y-2.5051
M15
G01X8.6142Y-2.5051
M16
G05
G00X8.7126Y-2.9713
M15
G01X8.6142Y-2.9713
M16
G05
G00X8.7815Y-2.6409
M15
G01X8.7815Y-2.7394
M16
G05
G00X8.7815Y-3.1071
M15
G01X8.7815Y-3.2055
M16
G05
T0
M30
