%TF.GenerationSoftware,KiCad,Pcbnew,6.0.11*%
%TF.CreationDate,2023-02-03T09:16:33-05:00*%
%TF.ProjectId,PhasedArrayReceiver,50686173-6564-4417-9272-617952656365,rev?*%
%TF.SameCoordinates,Original*%
%TF.FileFunction,Copper,L1,Top*%
%TF.FilePolarity,Positive*%
%FSLAX46Y46*%
G04 Gerber Fmt 4.6, Leading zero omitted, Abs format (unit mm)*
G04 Created by KiCad (PCBNEW 6.0.11) date 2023-02-03 09:16:33*
%MOMM*%
%LPD*%
G01*
G04 APERTURE LIST*
G04 Aperture macros list*
%AMOutline5P*
0 Free polygon, 5 corners , with rotation*
0 The origin of the aperture is its center*
0 number of corners: always 5*
0 $1 to $10 corner X, Y*
0 $11 Rotation angle, in degrees counterclockwise*
0 create outline with 5 corners*
4,1,5,$1,$2,$3,$4,$5,$6,$7,$8,$9,$10,$1,$2,$11*%
%AMOutline6P*
0 Free polygon, 6 corners , with rotation*
0 The origin of the aperture is its center*
0 number of corners: always 6*
0 $1 to $12 corner X, Y*
0 $13 Rotation angle, in degrees counterclockwise*
0 create outline with 6 corners*
4,1,6,$1,$2,$3,$4,$5,$6,$7,$8,$9,$10,$11,$12,$1,$2,$13*%
%AMOutline7P*
0 Free polygon, 7 corners , with rotation*
0 The origin of the aperture is its center*
0 number of corners: always 7*
0 $1 to $14 corner X, Y*
0 $15 Rotation angle, in degrees counterclockwise*
0 create outline with 7 corners*
4,1,7,$1,$2,$3,$4,$5,$6,$7,$8,$9,$10,$11,$12,$13,$14,$1,$2,$15*%
%AMOutline8P*
0 Free polygon, 8 corners , with rotation*
0 The origin of the aperture is its center*
0 number of corners: always 8*
0 $1 to $16 corner X, Y*
0 $17 Rotation angle, in degrees counterclockwise*
0 create outline with 8 corners*
4,1,8,$1,$2,$3,$4,$5,$6,$7,$8,$9,$10,$11,$12,$13,$14,$15,$16,$1,$2,$17*%
G04 Aperture macros list end*
%TA.AperFunction,SMDPad,CuDef*%
%ADD10R,1.420000X1.200000*%
%TD*%
%TA.AperFunction,SMDPad,CuDef*%
%ADD11R,1.020000X1.780000*%
%TD*%
%TA.AperFunction,SMDPad,CuDef*%
%ADD12R,1.010000X1.380000*%
%TD*%
%TA.AperFunction,SMDPad,CuDef*%
%ADD13R,1.380000X1.010000*%
%TD*%
%TA.AperFunction,ComponentPad*%
%ADD14R,2.000000X4.500000*%
%TD*%
%TA.AperFunction,ComponentPad*%
%ADD15R,4.500000X2.000000*%
%TD*%
%TA.AperFunction,SMDPad,CuDef*%
%ADD16R,1.150000X1.450000*%
%TD*%
%TA.AperFunction,SMDPad,CuDef*%
%ADD17R,1.160000X1.470000*%
%TD*%
%TA.AperFunction,ComponentPad*%
%ADD18C,3.600000*%
%TD*%
%TA.AperFunction,ConnectorPad*%
%ADD19C,5.600000*%
%TD*%
%TA.AperFunction,SMDPad,CuDef*%
%ADD20R,5.540000X0.720000*%
%TD*%
%TA.AperFunction,SMDPad,CuDef*%
%ADD21R,5.540000X3.450000*%
%TD*%
%TA.AperFunction,ComponentPad*%
%ADD22C,1.400000*%
%TD*%
%TA.AperFunction,ComponentPad*%
%ADD23C,0.508000*%
%TD*%
%TA.AperFunction,SMDPad,CuDef*%
%ADD24R,2.540000X1.650000*%
%TD*%
%TA.AperFunction,SMDPad,CuDef*%
%ADD25R,2.200000X1.200000*%
%TD*%
%TA.AperFunction,SMDPad,CuDef*%
%ADD26R,6.400000X5.800000*%
%TD*%
%TA.AperFunction,SMDPad,CuDef*%
%ADD27R,1.473200X0.355600*%
%TD*%
%TA.AperFunction,SMDPad,CuDef*%
%ADD28R,1.651000X2.540000*%
%TD*%
%TA.AperFunction,SMDPad,CuDef*%
%ADD29R,16.890000X6.225000*%
%TD*%
%TA.AperFunction,SMDPad,CuDef*%
%ADD30R,0.760000X1.270000*%
%TD*%
%TA.AperFunction,SMDPad,CuDef*%
%ADD31R,0.790000X1.117600*%
%TD*%
%TA.AperFunction,SMDPad,CuDef*%
%ADD32Outline5P,-0.304800X1.435100X0.304800X1.435100X0.304800X-1.130300X0.000000X-1.435100X-0.304800X-1.435100X0.000000*%
%TD*%
%TA.AperFunction,HeatsinkPad*%
%ADD33C,0.381000*%
%TD*%
%TA.AperFunction,HeatsinkPad*%
%ADD34R,1.700000X2.286000*%
%TD*%
%TA.AperFunction,HeatsinkPad*%
%ADD35R,1.700000X1.700000*%
%TD*%
%TA.AperFunction,ComponentPad*%
%ADD36R,1.000000X1.000000*%
%TD*%
%TA.AperFunction,SMDPad,CuDef*%
%ADD37R,1.200000X1.000000*%
%TD*%
%TA.AperFunction,ComponentPad*%
%ADD38R,1.700000X1.700000*%
%TD*%
%TA.AperFunction,ComponentPad*%
%ADD39O,1.700000X1.700000*%
%TD*%
%TA.AperFunction,SMDPad,CuDef*%
%ADD40R,0.900000X1.200000*%
%TD*%
%TA.AperFunction,ViaPad*%
%ADD41C,0.800000*%
%TD*%
%TA.AperFunction,ViaPad*%
%ADD42C,3.000000*%
%TD*%
%TA.AperFunction,Conductor*%
%ADD43C,0.412683*%
%TD*%
%TA.AperFunction,Conductor*%
%ADD44C,0.900000*%
%TD*%
%TA.AperFunction,Conductor*%
%ADD45C,0.350000*%
%TD*%
%TA.AperFunction,Conductor*%
%ADD46C,4.000000*%
%TD*%
%TA.AperFunction,Conductor*%
%ADD47C,1.651000*%
%TD*%
%TA.AperFunction,Conductor*%
%ADD48C,2.000000*%
%TD*%
G04 APERTURE END LIST*
%TO.C,U9*%
G36*
X157850000Y-80272000D02*
G01*
X150550000Y-80272000D01*
X150550000Y-78748000D01*
X157850000Y-78748000D01*
X157850000Y-80272000D01*
G37*
G36*
X157850000Y-85352000D02*
G01*
X148650000Y-85352000D01*
X148650000Y-83828000D01*
X157850000Y-83828000D01*
X157850000Y-85352000D01*
G37*
G36*
X157850000Y-90432000D02*
G01*
X150550000Y-90432000D01*
X150550000Y-88908000D01*
X157850000Y-88908000D01*
X157850000Y-90432000D01*
G37*
G36*
X166550000Y-85290000D02*
G01*
X161150000Y-85290000D01*
X161150000Y-75190000D01*
X166550000Y-75190000D01*
X166550000Y-85290000D01*
G37*
G36*
X166550000Y-93990000D02*
G01*
X161150000Y-93990000D01*
X161150000Y-88790000D01*
X166550000Y-88790000D01*
X166550000Y-93990000D01*
G37*
G36*
X156750000Y-93990000D02*
G01*
X162450000Y-93990000D01*
X162450000Y-75190000D01*
X156750000Y-75190000D01*
X156750000Y-93990000D01*
G37*
%TO.C,U13*%
G36*
X129114500Y-114640000D02*
G01*
X130765500Y-114640000D01*
X130765500Y-113910000D01*
X129114500Y-113910000D01*
X129114500Y-114640000D01*
G37*
G36*
X121494500Y-114640000D02*
G01*
X125685500Y-114640000D01*
X125685500Y-113910000D01*
X121494500Y-113910000D01*
X121494500Y-114640000D01*
G37*
%TO.C,U12*%
G36*
X129114500Y-97577500D02*
G01*
X130765500Y-97577500D01*
X130765500Y-96847500D01*
X129114500Y-96847500D01*
X129114500Y-97577500D01*
G37*
G36*
X121494500Y-97577500D02*
G01*
X125685500Y-97577500D01*
X125685500Y-96847500D01*
X121494500Y-96847500D01*
X121494500Y-97577500D01*
G37*
%TO.C,U11*%
G36*
X129114500Y-80740000D02*
G01*
X130765500Y-80740000D01*
X130765500Y-80010000D01*
X129114500Y-80010000D01*
X129114500Y-80740000D01*
G37*
G36*
X121494500Y-80740000D02*
G01*
X125685500Y-80740000D01*
X125685500Y-80010000D01*
X121494500Y-80010000D01*
X121494500Y-80740000D01*
G37*
%TO.C,U2*%
G36*
X121494500Y-63800000D02*
G01*
X125685500Y-63800000D01*
X125685500Y-63070000D01*
X121494500Y-63070000D01*
X121494500Y-63800000D01*
G37*
G36*
X129114500Y-63800000D02*
G01*
X130765500Y-63800000D01*
X130765500Y-63070000D01*
X129114500Y-63070000D01*
X129114500Y-63800000D01*
G37*
%TD*%
D10*
%TO.P,R4,1*%
%TO.N,Net-(L4-Pad2)*%
X92690000Y-110605000D03*
%TO.P,R4,2*%
%TO.N,/+3.3V*%
X92690000Y-108935000D03*
%TD*%
%TO.P,R3,1*%
%TO.N,Net-(L3-Pad2)*%
X92690000Y-93665000D03*
%TO.P,R3,2*%
%TO.N,/+3.3V*%
X92690000Y-91995000D03*
%TD*%
%TO.P,R2,1*%
%TO.N,Net-(L2-Pad2)*%
X92690000Y-76725000D03*
%TO.P,R2,2*%
%TO.N,/+3.3V*%
X92690000Y-75055000D03*
%TD*%
%TO.P,R1,1*%
%TO.N,Net-(L1-Pad2)*%
X92660000Y-59815000D03*
%TO.P,R1,2*%
%TO.N,/+3.3V*%
X92660000Y-58145000D03*
%TD*%
D11*
%TO.P,L4,1,1*%
%TO.N,Net-(C6-Pad2)*%
X88350000Y-113350000D03*
%TO.P,L4,2,2*%
%TO.N,Net-(L4-Pad2)*%
X90130000Y-113350000D03*
%TD*%
%TO.P,L3,1,1*%
%TO.N,Net-(C5-Pad2)*%
X88350000Y-96410000D03*
%TO.P,L3,2,2*%
%TO.N,Net-(L3-Pad2)*%
X90130000Y-96410000D03*
%TD*%
%TO.P,L2,1,1*%
%TO.N,Net-(C4-Pad2)*%
X88350000Y-79470000D03*
%TO.P,L2,2,2*%
%TO.N,Net-(L2-Pad2)*%
X90130000Y-79470000D03*
%TD*%
%TO.P,L1,1,1*%
%TO.N,Net-(C1-Pad2)*%
X88350000Y-62560000D03*
%TO.P,L1,2,2*%
%TO.N,Net-(L1-Pad2)*%
X90130000Y-62560000D03*
%TD*%
D12*
%TO.P,R9,1*%
%TO.N,/SPI_CS*%
X194290000Y-61140000D03*
%TO.P,R9,2*%
%TO.N,/GND*%
X196190000Y-61140000D03*
%TD*%
%TO.P,R8,1*%
%TO.N,/+3.3V*%
X196200000Y-59000000D03*
%TO.P,R8,2*%
%TO.N,Net-(MOD1-Pad11)*%
X194300000Y-59000000D03*
%TD*%
%TO.P,R7,1*%
%TO.N,/+3.3V*%
X169700000Y-52930000D03*
%TO.P,R7,2*%
%TO.N,Net-(MOD1-Pad3)*%
X171600000Y-52930000D03*
%TD*%
%TO.P,R6,1*%
%TO.N,/+3.3V*%
X169700000Y-48980000D03*
%TO.P,R6,2*%
%TO.N,Net-(MOD1-Pad1)*%
X171600000Y-48980000D03*
%TD*%
D13*
%TO.P,R5,1*%
%TO.N,/+3.3V*%
X212730000Y-51540000D03*
%TO.P,R5,2*%
%TO.N,/FTDI_RTS#*%
X212730000Y-49640000D03*
%TD*%
D14*
%TO.P,J7,1*%
%TO.N,/+12V*%
X217050000Y-80170000D03*
%TO.P,J7,2*%
%TO.N,/GND*%
X223050000Y-80170000D03*
D15*
%TO.P,J7,3*%
%TO.N,N/C*%
X220050000Y-75470000D03*
%TD*%
D14*
%TO.P,J6,1*%
%TO.N,/+5V*%
X217050000Y-68330000D03*
%TO.P,J6,2*%
%TO.N,/GND*%
X223050000Y-68330000D03*
D15*
%TO.P,J6,3*%
%TO.N,N/C*%
X220050000Y-63630000D03*
%TD*%
D16*
%TO.P,C19,1*%
%TO.N,/+3.3V*%
X204910000Y-70590000D03*
%TO.P,C19,2*%
%TO.N,/GND*%
X206710000Y-70590000D03*
%TD*%
%TO.P,C18,1*%
%TO.N,/+3.3V*%
X169970000Y-65580000D03*
%TO.P,C18,2*%
%TO.N,/GND*%
X168170000Y-65580000D03*
%TD*%
%TO.P,C14,1*%
%TO.N,/+3.3V*%
X184420000Y-84590000D03*
%TO.P,C14,2*%
%TO.N,/GND*%
X186220000Y-84590000D03*
%TD*%
%TO.P,C13,1*%
%TO.N,/+12V*%
X184410000Y-79870000D03*
%TO.P,C13,2*%
%TO.N,/GND*%
X186210000Y-79870000D03*
%TD*%
D17*
%TO.P,C1,1*%
%TO.N,Net-(C1-Pad1)*%
X83290000Y-68570000D03*
%TO.P,C1,2*%
%TO.N,Net-(C1-Pad2)*%
X85050000Y-68570000D03*
%TD*%
%TO.P,C17,1*%
%TO.N,/+3.3V*%
X169940000Y-62570000D03*
%TO.P,C17,2*%
%TO.N,/GND*%
X168180000Y-62570000D03*
%TD*%
%TO.P,C16,1*%
%TO.N,/+3.3V*%
X184400000Y-86930000D03*
%TO.P,C16,2*%
%TO.N,/GND*%
X186160000Y-86930000D03*
%TD*%
%TO.P,C15,1*%
%TO.N,/+12V*%
X184380000Y-82240000D03*
%TO.P,C15,2*%
%TO.N,/GND*%
X186140000Y-82240000D03*
%TD*%
%TO.P,C12,1*%
%TO.N,Net-(C12-Pad1)*%
X101160000Y-115850000D03*
%TO.P,C12,2*%
%TO.N,Net-(C12-Pad2)*%
X102920000Y-115850000D03*
%TD*%
%TO.P,C11,1*%
%TO.N,Net-(C11-Pad1)*%
X101160000Y-98940000D03*
%TO.P,C11,2*%
%TO.N,Net-(C11-Pad2)*%
X102920000Y-98940000D03*
%TD*%
%TO.P,C10,1*%
%TO.N,Net-(C10-Pad1)*%
X101160000Y-82030000D03*
%TO.P,C10,2*%
%TO.N,Net-(C10-Pad2)*%
X102920000Y-82030000D03*
%TD*%
%TO.P,C9,1*%
%TO.N,/+3.3V*%
X89240000Y-108950000D03*
%TO.P,C9,2*%
%TO.N,/GND*%
X87480000Y-108950000D03*
%TD*%
%TO.P,C8,1*%
%TO.N,/+3.3V*%
X89240000Y-92010000D03*
%TO.P,C8,2*%
%TO.N,/GND*%
X87480000Y-92010000D03*
%TD*%
%TO.P,C7,1*%
%TO.N,/+3.3V*%
X89240000Y-75070000D03*
%TO.P,C7,2*%
%TO.N,/GND*%
X87480000Y-75070000D03*
%TD*%
%TO.P,C6,1*%
%TO.N,Net-(C6-Pad1)*%
X83290000Y-119380000D03*
%TO.P,C6,2*%
%TO.N,Net-(C6-Pad2)*%
X85050000Y-119380000D03*
%TD*%
%TO.P,C5,1*%
%TO.N,Net-(C5-Pad1)*%
X83290000Y-102440000D03*
%TO.P,C5,2*%
%TO.N,Net-(C5-Pad2)*%
X85050000Y-102440000D03*
%TD*%
%TO.P,C4,1*%
%TO.N,Net-(C4-Pad1)*%
X83290000Y-85510000D03*
%TO.P,C4,2*%
%TO.N,Net-(C4-Pad2)*%
X85050000Y-85510000D03*
%TD*%
%TO.P,C3,1*%
%TO.N,Net-(C3-Pad1)*%
X101160000Y-65120000D03*
%TO.P,C3,2*%
%TO.N,Net-(C3-Pad2)*%
X102920000Y-65120000D03*
%TD*%
%TO.P,C2,1*%
%TO.N,/+3.3V*%
X89240000Y-58160000D03*
%TO.P,C2,2*%
%TO.N,/GND*%
X87480000Y-58160000D03*
%TD*%
D18*
%TO.P,REF\u002A\u002A,1*%
%TO.N,N/C*%
X76000000Y-128000000D03*
D19*
X76000000Y-128000000D03*
%TD*%
D18*
%TO.P,REF\u002A\u002A,1*%
%TO.N,N/C*%
X224000000Y-128000000D03*
D19*
X224000000Y-128000000D03*
%TD*%
D18*
%TO.P,REF\u002A\u002A,1*%
%TO.N,N/C*%
X224000000Y-51000000D03*
D19*
X224000000Y-51000000D03*
%TD*%
D18*
%TO.P,REF\u002A\u002A,1*%
%TO.N,N/C*%
X76000000Y-51000000D03*
D19*
X76000000Y-51000000D03*
%TD*%
D20*
%TO.P,J8,1,1*%
%TO.N,Net-(J8-Pad1)*%
X224395000Y-92120000D03*
D21*
%TO.P,J8,G1,GND*%
%TO.N,/GND*%
X224395000Y-89780000D03*
D22*
%TO.P,J8,G1-1,GND*%
X223205000Y-90685000D03*
%TO.P,J8,G1-2,GND*%
X225497000Y-90685000D03*
D21*
%TO.P,J8,G2,GND*%
X224395000Y-94460000D03*
D22*
%TO.P,J8,G2-1,GND*%
X223205000Y-93555000D03*
%TO.P,J8,G2-2,GND*%
X225497000Y-93555000D03*
%TD*%
D20*
%TO.P,J4,1,1*%
%TO.N,Net-(C6-Pad1)*%
X75825000Y-119380000D03*
D21*
%TO.P,J4,G1,GND*%
%TO.N,/GND*%
X75825000Y-121720000D03*
D22*
%TO.P,J4,G1-1,GND*%
X77015000Y-120815000D03*
%TO.P,J4,G1-2,GND*%
X74723000Y-120815000D03*
D21*
%TO.P,J4,G2,GND*%
X75825000Y-117040000D03*
D22*
%TO.P,J4,G2-1,GND*%
X77015000Y-117945000D03*
%TO.P,J4,G2-2,GND*%
X74723000Y-117945000D03*
%TD*%
D20*
%TO.P,J3,1,1*%
%TO.N,Net-(C5-Pad1)*%
X75825000Y-102446666D03*
D21*
%TO.P,J3,G1,GND*%
%TO.N,/GND*%
X75825000Y-104786666D03*
D22*
%TO.P,J3,G1-1,GND*%
X77015000Y-103881666D03*
%TO.P,J3,G1-2,GND*%
X74723000Y-103881666D03*
D21*
%TO.P,J3,G2,GND*%
X75825000Y-100106666D03*
D22*
%TO.P,J3,G2-1,GND*%
X77015000Y-101011666D03*
%TO.P,J3,G2-2,GND*%
X74723000Y-101011666D03*
%TD*%
D20*
%TO.P,J2,1,1*%
%TO.N,Net-(C4-Pad1)*%
X75825000Y-85513333D03*
D21*
%TO.P,J2,G1,GND*%
%TO.N,/GND*%
X75825000Y-87853333D03*
D22*
%TO.P,J2,G1-1,GND*%
X77015000Y-86948333D03*
%TO.P,J2,G1-2,GND*%
X74723000Y-86948333D03*
D21*
%TO.P,J2,G2,GND*%
X75825000Y-83173333D03*
D22*
%TO.P,J2,G2-1,GND*%
X77015000Y-84078333D03*
%TO.P,J2,G2-2,GND*%
X74723000Y-84078333D03*
%TD*%
D20*
%TO.P,J1,1,1*%
%TO.N,Net-(C1-Pad1)*%
X75825000Y-68580000D03*
D21*
%TO.P,J1,G1,GND*%
%TO.N,/GND*%
X75825000Y-70920000D03*
D22*
%TO.P,J1,G1-1,GND*%
X77015000Y-70015000D03*
%TO.P,J1,G1-2,GND*%
X74723000Y-70015000D03*
D21*
%TO.P,J1,G2,GND*%
X75825000Y-66240000D03*
D22*
%TO.P,J1,G2-1,GND*%
X77015000Y-67145000D03*
%TO.P,J1,G2-2,GND*%
X74723000Y-67145000D03*
%TD*%
D23*
%TO.P,U9,1,GND*%
%TO.N,/GND*%
X161850000Y-92210000D03*
X163950000Y-89670000D03*
X157330000Y-76970000D03*
X161850000Y-82050000D03*
X161850000Y-89670000D03*
D24*
X164375000Y-82050000D03*
D23*
X161850000Y-87090000D03*
X154850000Y-89670000D03*
X166050000Y-76970000D03*
X154850000Y-79510000D03*
X157330000Y-89670000D03*
D24*
X164375000Y-92210000D03*
D23*
X166050000Y-84590000D03*
X157330000Y-92210000D03*
X166050000Y-92210000D03*
D24*
X164375000Y-76970000D03*
D23*
X161850000Y-79510000D03*
X152950000Y-79530000D03*
X161850000Y-84590000D03*
X163950000Y-79510000D03*
X166050000Y-79510000D03*
X166050000Y-89670000D03*
X163950000Y-84590000D03*
X157330000Y-82050000D03*
X161850000Y-76970000D03*
X152950000Y-84590000D03*
X157330000Y-79510000D03*
X157330000Y-84590000D03*
X149550000Y-84590000D03*
X157330000Y-87090000D03*
X166050000Y-82050000D03*
X152950000Y-89690000D03*
X151150000Y-89690000D03*
X151150000Y-79530000D03*
X151150000Y-84590000D03*
X154850000Y-84590000D03*
D24*
%TO.P,U9,2,PORT1*%
%TO.N,/RF4*%
X154725000Y-92210000D03*
%TO.P,U9,3,SUM_PORT*%
%TO.N,Net-(J8-Pad1)*%
X164375000Y-87130000D03*
%TO.P,U9,4,PORT2*%
%TO.N,/RF3*%
X154725000Y-87130000D03*
%TO.P,U9,6,PORT3*%
%TO.N,/RF2*%
X154725000Y-82050000D03*
%TO.P,U9,8,PORT4*%
%TO.N,/RF1*%
X154725000Y-76970000D03*
%TD*%
D25*
%TO.P,U15,1,GND*%
%TO.N,/GND*%
X200460000Y-72900000D03*
%TO.P,U15,2,Q*%
%TO.N,/+3.3V*%
X200460000Y-70620000D03*
D26*
X194160000Y-70620000D03*
D25*
%TO.P,U15,3,I*%
%TO.N,/+5V*%
X200460000Y-68340000D03*
%TD*%
D27*
%TO.P,U14,1,\u002ACLR*%
%TO.N,/IO4*%
X174918500Y-80944000D03*
%TO.P,U14,2,\u002ASYNC*%
%TO.N,/IO16*%
X174918500Y-81604400D03*
%TO.P,U14,3,SCLK*%
%TO.N,/SPI_CLK*%
X174918500Y-82264800D03*
%TO.P,U14,4,SDI*%
%TO.N,/SPI_MOSI*%
X174918500Y-82899800D03*
%TO.P,U14,5,SDO*%
%TO.N,/SPI_MISO*%
X174918500Y-83560200D03*
%TO.P,U14,6,DGND*%
%TO.N,/GND*%
X174918500Y-84195200D03*
%TO.P,U14,7,AGND*%
X174918500Y-84855600D03*
%TO.P,U14,8,\u002ALDAC*%
%TO.N,/IO5*%
X174918500Y-85516000D03*
%TO.P,U14,9,VOUTD*%
%TO.N,/BIAS4*%
X180557300Y-85516000D03*
%TO.P,U14,10,VOUTC*%
%TO.N,/BIAS3*%
X180557300Y-84855600D03*
%TO.P,U14,11,VOUTB*%
%TO.N,/BIAS2*%
X180557300Y-84195200D03*
%TO.P,U14,12,VOUTA*%
%TO.N,/BIAS1*%
X180557300Y-83560200D03*
%TO.P,U14,13,\u002AR_SEL*%
%TO.N,/+3.3V*%
X180557300Y-82899800D03*
%TO.P,U14,14,VDD*%
%TO.N,/+12V*%
X180557300Y-82264800D03*
%TO.P,U14,15,\u002AALARM*%
%TO.N,Net-(TP1-Pad1)*%
X180557300Y-81604400D03*
%TO.P,U14,16,VLOGIC*%
%TO.N,/+3.3V*%
X180557300Y-80944000D03*
%TD*%
D28*
%TO.P,U13,7,OUT*%
%TO.N,/RF4*%
X135020000Y-115910000D03*
%TO.P,U13,6,BIAS*%
%TO.N,/BIAS4*%
X132480000Y-115910000D03*
%TO.P,U13,4,BIAS*%
X127400000Y-115910000D03*
%TO.P,U13,2,GND*%
%TO.N,/GND*%
X124860000Y-106510000D03*
D23*
X135020000Y-108923000D03*
D28*
X127400000Y-106510000D03*
D23*
X129940000Y-110066000D03*
X119780000Y-108923000D03*
X135020000Y-113497000D03*
X132480000Y-110066000D03*
D29*
X127400000Y-110892500D03*
D23*
X135020000Y-110066000D03*
X132480000Y-108923000D03*
X122320000Y-112354000D03*
X129940000Y-108923000D03*
D28*
X132480000Y-106510000D03*
D23*
X124860000Y-112354000D03*
X127400000Y-110066000D03*
X119780000Y-112354000D03*
X127400000Y-113497000D03*
D28*
X122320000Y-106510000D03*
D23*
X132480000Y-112354000D03*
X124860000Y-113497000D03*
D28*
X129940000Y-115910000D03*
D23*
X129940000Y-113497000D03*
X129940000Y-112354000D03*
X127400000Y-112354000D03*
X122320000Y-113497000D03*
D28*
X119780000Y-106510000D03*
D23*
X122320000Y-110066000D03*
X122320000Y-108923000D03*
D28*
X135020000Y-106510000D03*
X124860000Y-115910000D03*
X129940000Y-106510000D03*
D23*
X132480000Y-113497000D03*
X124860000Y-110066000D03*
X119780000Y-110066000D03*
D28*
X122320000Y-115910000D03*
D23*
X127400000Y-108923000D03*
X124860000Y-108923000D03*
X135020000Y-112354000D03*
X119780000Y-113497000D03*
D28*
%TO.P,U13,1,IN*%
%TO.N,Net-(C12-Pad2)*%
X119780000Y-115910000D03*
%TD*%
%TO.P,U12,7,OUT*%
%TO.N,/RF3*%
X135020000Y-98847500D03*
%TO.P,U12,6,BIAS*%
%TO.N,/BIAS3*%
X132480000Y-98847500D03*
%TO.P,U12,4,BIAS*%
X127400000Y-98847500D03*
%TO.P,U12,2,GND*%
%TO.N,/GND*%
X124860000Y-89447500D03*
D23*
X135020000Y-91860500D03*
D28*
X127400000Y-89447500D03*
D23*
X129940000Y-93003500D03*
X119780000Y-91860500D03*
X135020000Y-96434500D03*
X132480000Y-93003500D03*
D29*
X127400000Y-93830000D03*
D23*
X135020000Y-93003500D03*
X132480000Y-91860500D03*
X122320000Y-95291500D03*
X129940000Y-91860500D03*
D28*
X132480000Y-89447500D03*
D23*
X124860000Y-95291500D03*
X127400000Y-93003500D03*
X119780000Y-95291500D03*
X127400000Y-96434500D03*
D28*
X122320000Y-89447500D03*
D23*
X132480000Y-95291500D03*
X124860000Y-96434500D03*
D28*
X129940000Y-98847500D03*
D23*
X129940000Y-96434500D03*
X129940000Y-95291500D03*
X127400000Y-95291500D03*
X122320000Y-96434500D03*
D28*
X119780000Y-89447500D03*
D23*
X122320000Y-93003500D03*
X122320000Y-91860500D03*
D28*
X135020000Y-89447500D03*
X124860000Y-98847500D03*
X129940000Y-89447500D03*
D23*
X132480000Y-96434500D03*
X124860000Y-93003500D03*
X119780000Y-93003500D03*
D28*
X122320000Y-98847500D03*
D23*
X127400000Y-91860500D03*
X124860000Y-91860500D03*
X135020000Y-95291500D03*
X119780000Y-96434500D03*
D28*
%TO.P,U12,1,IN*%
%TO.N,Net-(C11-Pad2)*%
X119780000Y-98847500D03*
%TD*%
%TO.P,U11,7,OUT*%
%TO.N,/RF2*%
X135020000Y-82010000D03*
%TO.P,U11,6,BIAS*%
%TO.N,/BIAS2*%
X132480000Y-82010000D03*
%TO.P,U11,4,BIAS*%
X127400000Y-82010000D03*
%TO.P,U11,2,GND*%
%TO.N,/GND*%
X124860000Y-72610000D03*
D23*
X135020000Y-75023000D03*
D28*
X127400000Y-72610000D03*
D23*
X129940000Y-76166000D03*
X119780000Y-75023000D03*
X135020000Y-79597000D03*
X132480000Y-76166000D03*
D29*
X127400000Y-76992500D03*
D23*
X135020000Y-76166000D03*
X132480000Y-75023000D03*
X122320000Y-78454000D03*
X129940000Y-75023000D03*
D28*
X132480000Y-72610000D03*
D23*
X124860000Y-78454000D03*
X127400000Y-76166000D03*
X119780000Y-78454000D03*
X127400000Y-79597000D03*
D28*
X122320000Y-72610000D03*
D23*
X132480000Y-78454000D03*
X124860000Y-79597000D03*
D28*
X129940000Y-82010000D03*
D23*
X129940000Y-79597000D03*
X129940000Y-78454000D03*
X127400000Y-78454000D03*
X122320000Y-79597000D03*
D28*
X119780000Y-72610000D03*
D23*
X122320000Y-76166000D03*
X122320000Y-75023000D03*
D28*
X135020000Y-72610000D03*
X124860000Y-82010000D03*
X129940000Y-72610000D03*
D23*
X132480000Y-79597000D03*
X124860000Y-76166000D03*
X119780000Y-76166000D03*
D28*
X122320000Y-82010000D03*
D23*
X127400000Y-75023000D03*
X124860000Y-75023000D03*
X135020000Y-78454000D03*
X119780000Y-79597000D03*
D28*
%TO.P,U11,1,IN*%
%TO.N,Net-(C10-Pad2)*%
X119780000Y-82010000D03*
%TD*%
D30*
%TO.P,U10,1,RF_IN*%
%TO.N,Net-(C12-Pad1)*%
X97590000Y-119295000D03*
%TO.P,U10,2*%
%TO.N,unconnected-(U10-Pad2)*%
X100130000Y-119295000D03*
%TO.P,U10,3,DC*%
%TO.N,/+3.3V*%
X100130000Y-122085000D03*
%TO.P,U10,4*%
%TO.N,unconnected-(U10-Pad4)*%
X97590000Y-122085000D03*
%TD*%
%TO.P,U8,1,RF_IN*%
%TO.N,Net-(C11-Pad1)*%
X97590000Y-102385000D03*
%TO.P,U8,2*%
%TO.N,unconnected-(U8-Pad2)*%
X100130000Y-102385000D03*
%TO.P,U8,3,DC*%
%TO.N,/+3.3V*%
X100130000Y-105175000D03*
%TO.P,U8,4*%
%TO.N,unconnected-(U8-Pad4)*%
X97590000Y-105175000D03*
%TD*%
%TO.P,U7,1,RF_IN*%
%TO.N,Net-(C10-Pad1)*%
X97590000Y-85475000D03*
%TO.P,U7,2*%
%TO.N,unconnected-(U7-Pad2)*%
X100130000Y-85475000D03*
%TO.P,U7,3,DC*%
%TO.N,/+3.3V*%
X100130000Y-88265000D03*
%TO.P,U7,4*%
%TO.N,unconnected-(U7-Pad4)*%
X97590000Y-88265000D03*
%TD*%
D31*
%TO.P,U6,1,RF_IN*%
%TO.N,Net-(C6-Pad2)*%
X90660000Y-119380000D03*
%TO.P,U6,6,RF_OUT_DC*%
%TO.N,Net-(C12-Pad1)*%
X93660000Y-119380000D03*
D32*
%TO.P,U6,7,BIAS*%
%TO.N,Net-(L4-Pad2)*%
X92642600Y-116839900D03*
D33*
%TO.P,U6,9,GND*%
%TO.N,/GND*%
X91677400Y-121793000D03*
X91677400Y-119862600D03*
X91677400Y-118897400D03*
D34*
X92160000Y-121373000D03*
D33*
X92642600Y-119862600D03*
X92642600Y-121793000D03*
D35*
X92160000Y-119380000D03*
D33*
X92642600Y-118897400D03*
%TD*%
D31*
%TO.P,U5,1,RF_IN*%
%TO.N,Net-(C5-Pad2)*%
X90660000Y-102440000D03*
%TO.P,U5,6,RF_OUT_DC*%
%TO.N,Net-(C11-Pad1)*%
X93660000Y-102440000D03*
D32*
%TO.P,U5,7,BIAS*%
%TO.N,Net-(L3-Pad2)*%
X92642600Y-99899900D03*
D33*
%TO.P,U5,9,GND*%
%TO.N,/GND*%
X91677400Y-104853000D03*
X91677400Y-102922600D03*
X91677400Y-101957400D03*
D34*
X92160000Y-104433000D03*
D33*
X92642600Y-102922600D03*
X92642600Y-104853000D03*
D35*
X92160000Y-102440000D03*
D33*
X92642600Y-101957400D03*
%TD*%
%TO.P,U4,9,GND*%
%TO.N,/GND*%
X92642600Y-85017400D03*
D35*
X92160000Y-85500000D03*
D33*
X92642600Y-87913000D03*
X92642600Y-85982600D03*
D34*
X92160000Y-87493000D03*
D33*
X91677400Y-85017400D03*
X91677400Y-85982600D03*
X91677400Y-87913000D03*
D32*
%TO.P,U4,7,BIAS*%
%TO.N,Net-(L2-Pad2)*%
X92642600Y-82959900D03*
D31*
%TO.P,U4,6,RF_OUT_DC*%
%TO.N,Net-(C10-Pad1)*%
X93660000Y-85500000D03*
%TO.P,U4,1,RF_IN*%
%TO.N,Net-(C4-Pad2)*%
X90660000Y-85500000D03*
%TD*%
D30*
%TO.P,U3,1,RF_IN*%
%TO.N,Net-(C3-Pad1)*%
X97590000Y-68565000D03*
%TO.P,U3,2*%
%TO.N,unconnected-(U3-Pad2)*%
X100130000Y-68565000D03*
%TO.P,U3,3,DC*%
%TO.N,/+3.3V*%
X100130000Y-71355000D03*
%TO.P,U3,4*%
%TO.N,unconnected-(U3-Pad4)*%
X97590000Y-71355000D03*
%TD*%
D28*
%TO.P,U2,1,IN*%
%TO.N,Net-(C3-Pad2)*%
X119780000Y-65070000D03*
D23*
%TO.P,U2,2,GND*%
%TO.N,/GND*%
X119780000Y-62657000D03*
X135020000Y-61514000D03*
X124860000Y-58083000D03*
X127400000Y-58083000D03*
D28*
X122320000Y-65070000D03*
D23*
X119780000Y-59226000D03*
X124860000Y-59226000D03*
X132480000Y-62657000D03*
D28*
X129940000Y-55670000D03*
X124860000Y-65070000D03*
X135020000Y-55670000D03*
D23*
X122320000Y-58083000D03*
X122320000Y-59226000D03*
D28*
X119780000Y-55670000D03*
D23*
X122320000Y-62657000D03*
X127400000Y-61514000D03*
X129940000Y-61514000D03*
X129940000Y-62657000D03*
D28*
X129940000Y-65070000D03*
D23*
X124860000Y-62657000D03*
X132480000Y-61514000D03*
D28*
X122320000Y-55670000D03*
D23*
X127400000Y-62657000D03*
X119780000Y-61514000D03*
X127400000Y-59226000D03*
X124860000Y-61514000D03*
D28*
X132480000Y-55670000D03*
D23*
X129940000Y-58083000D03*
X122320000Y-61514000D03*
X132480000Y-58083000D03*
X135020000Y-59226000D03*
D29*
X127400000Y-60052500D03*
D23*
X132480000Y-59226000D03*
X135020000Y-62657000D03*
X119780000Y-58083000D03*
X129940000Y-59226000D03*
D28*
X127400000Y-55670000D03*
D23*
X135020000Y-58083000D03*
D28*
X124860000Y-55670000D03*
%TO.P,U2,4,BIAS*%
%TO.N,/BIAS1*%
X127400000Y-65070000D03*
%TO.P,U2,6,BIAS*%
X132480000Y-65070000D03*
%TO.P,U2,7,OUT*%
%TO.N,/RF1*%
X135020000Y-65070000D03*
%TD*%
D31*
%TO.P,U1,1,RF_IN*%
%TO.N,Net-(C1-Pad2)*%
X90660000Y-68590000D03*
%TO.P,U1,6,RF_OUT_DC*%
%TO.N,Net-(C3-Pad1)*%
X93660000Y-68590000D03*
D32*
%TO.P,U1,7,BIAS*%
%TO.N,Net-(L1-Pad2)*%
X92642600Y-66049900D03*
D33*
%TO.P,U1,9,GND*%
%TO.N,/GND*%
X91677400Y-71003000D03*
X91677400Y-69072600D03*
X91677400Y-68107400D03*
D34*
X92160000Y-70583000D03*
D33*
X92642600Y-69072600D03*
X92642600Y-71003000D03*
D35*
X92160000Y-68590000D03*
D33*
X92642600Y-68107400D03*
%TD*%
D36*
%TO.P,TP1,1,1*%
%TO.N,Net-(TP1-Pad1)*%
X182580000Y-75990000D03*
%TD*%
D37*
%TO.P,MOD1,1,RST*%
%TO.N,Net-(MOD1-Pad1)*%
X174680000Y-48980000D03*
%TO.P,MOD1,2,ADC*%
%TO.N,unconnected-(MOD1-Pad2)*%
X174680000Y-50980000D03*
%TO.P,MOD1,3,EN*%
%TO.N,Net-(MOD1-Pad3)*%
X174680000Y-52980000D03*
%TO.P,MOD1,4,IO16*%
%TO.N,/IO16*%
X174680000Y-54980000D03*
%TO.P,MOD1,5,IO14*%
%TO.N,/SPI_CLK*%
X174680000Y-56980000D03*
%TO.P,MOD1,6,IO12*%
%TO.N,/SPI_MISO*%
X174680000Y-58980000D03*
%TO.P,MOD1,7,IO13*%
%TO.N,/SPI_MOSI*%
X174680000Y-60980000D03*
%TO.P,MOD1,8,VCC*%
%TO.N,/+3.3V*%
X174680000Y-62980000D03*
%TO.P,MOD1,9,GND*%
%TO.N,/GND*%
X190680000Y-62980000D03*
%TO.P,MOD1,10,IO15*%
%TO.N,/SPI_CS*%
X190680000Y-60980000D03*
%TO.P,MOD1,11,IO2*%
%TO.N,Net-(MOD1-Pad11)*%
X190680000Y-58980000D03*
%TO.P,MOD1,12,IO0*%
%TO.N,/FTDI_RTS#*%
X190680000Y-56980000D03*
%TO.P,MOD1,13,IO4*%
%TO.N,/IO4*%
X190680000Y-54980000D03*
%TO.P,MOD1,14,IO5*%
%TO.N,/IO5*%
X190680000Y-52980000D03*
%TO.P,MOD1,15,RXD0*%
%TO.N,/FTDI_TX*%
X190680000Y-50980000D03*
%TO.P,MOD1,16,TXD0*%
%TO.N,/FTDI_RX*%
X190680000Y-48980000D03*
%TD*%
D38*
%TO.P,J5,1,Pin_1*%
%TO.N,/GND*%
X208760000Y-62340000D03*
D39*
%TO.P,J5,2,Pin_2*%
%TO.N,/FTDI_CTS#*%
X208760000Y-59800000D03*
%TO.P,J5,3,Pin_3*%
%TO.N,/FTDI_5V*%
X208760000Y-57260000D03*
%TO.P,J5,4,Pin_4*%
%TO.N,/FTDI_TX*%
X208760000Y-54720000D03*
%TO.P,J5,5,Pin_5*%
%TO.N,/FTDI_RX*%
X208760000Y-52180000D03*
%TO.P,J5,6,Pin_6*%
%TO.N,/FTDI_RTS#*%
X208760000Y-49640000D03*
%TD*%
D40*
%TO.P,D1,1,K*%
%TO.N,/+5V*%
X200370000Y-57240000D03*
%TO.P,D1,2,A*%
%TO.N,/FTDI_5V*%
X203670000Y-57240000D03*
%TD*%
D41*
%TO.N,/+3.3V*%
X184390000Y-88970000D03*
X212780000Y-53080000D03*
X169910000Y-67390000D03*
%TO.N,/GND*%
X166330000Y-65580000D03*
X166310000Y-62570000D03*
%TO.N,/+3.3V*%
X169950000Y-60770000D03*
X173370000Y-63820000D03*
%TO.N,/GND*%
X208340000Y-70600000D03*
D42*
%TO.N,/+3.3V*%
X194130000Y-75970000D03*
D41*
X202820000Y-70570000D03*
%TO.N,/GND*%
X202820000Y-72850000D03*
X192440000Y-62910000D03*
X197760000Y-61140000D03*
%TO.N,/+3.3V*%
X197750000Y-58950000D03*
%TO.N,/FTDI_RTS#*%
X194590000Y-56780000D03*
%TO.N,/IO4*%
X188630000Y-71630000D03*
X174620000Y-80040000D03*
%TO.N,/+3.3V*%
X167970000Y-52900000D03*
X168000000Y-48980000D03*
%TO.N,/GND*%
X173490000Y-84366041D03*
X187770000Y-86930000D03*
X187770000Y-84600000D03*
X187790000Y-79880000D03*
X187820000Y-82170000D03*
%TO.N,/BIAS4*%
X178440000Y-87880000D03*
%TO.N,/BIAS3*%
X177160000Y-87300000D03*
%TO.N,/BIAS2*%
X174450000Y-88110000D03*
%TO.N,/BIAS1*%
X176570000Y-79470000D03*
%TO.N,/BIAS4*%
X132550000Y-118500000D03*
X127450000Y-118540000D03*
%TO.N,/BIAS3*%
X132550000Y-101390000D03*
X127450000Y-101420000D03*
%TO.N,/BIAS2*%
X132480000Y-84790000D03*
X127410000Y-84790000D03*
%TO.N,/BIAS1*%
X132480000Y-67080000D03*
X127390000Y-67090000D03*
%TO.N,/GND*%
X129960000Y-118630000D03*
X124870000Y-118490000D03*
X122320000Y-118450000D03*
X134965000Y-103170000D03*
X132434165Y-103170000D03*
X129890000Y-101280000D03*
X127372499Y-103170000D03*
X124841666Y-103170000D03*
X122310833Y-103170000D03*
X119780000Y-103170000D03*
X122320000Y-101280000D03*
X124890000Y-101380000D03*
X129890000Y-103170000D03*
X132445000Y-87420000D03*
X129920000Y-87420000D03*
X127395000Y-87370000D03*
X124870000Y-87415000D03*
X122345000Y-87340000D03*
X134970000Y-87470000D03*
X119820000Y-87340000D03*
X129950000Y-85955000D03*
X124860000Y-85865000D03*
X122335000Y-85865000D03*
X127404998Y-68650000D03*
X132438330Y-68650000D03*
X122371666Y-68690000D03*
X124888332Y-68650000D03*
X129921664Y-68650000D03*
X119855000Y-68660000D03*
X134955000Y-68670000D03*
X129940000Y-67780000D03*
X124870000Y-67745000D03*
X122345000Y-67745000D03*
X134960000Y-52870000D03*
X132443330Y-52870000D03*
X129926664Y-52870000D03*
X127409998Y-52870000D03*
X124893332Y-52870000D03*
X122376666Y-52910000D03*
X119860000Y-52860000D03*
%TO.N,/+3.3V*%
X100160000Y-91060000D03*
X100160000Y-89810000D03*
X100130000Y-124560000D03*
X100120000Y-123430000D03*
X100130000Y-108120000D03*
X100150000Y-106860000D03*
X100140000Y-74040000D03*
X100130000Y-72850000D03*
X96080000Y-108950000D03*
X94650000Y-108960000D03*
%TO.N,/GND*%
X84550000Y-108920000D03*
X85860000Y-108930000D03*
%TO.N,/+3.3V*%
X96220000Y-92000000D03*
X94730000Y-91990000D03*
%TO.N,/GND*%
X84290000Y-92030000D03*
X85630000Y-92020000D03*
%TO.N,/+3.3V*%
X96210000Y-75060000D03*
X94680000Y-75060000D03*
%TO.N,/GND*%
X84600000Y-75090000D03*
X85810000Y-75060000D03*
%TO.N,/+3.3V*%
X96190000Y-58140000D03*
X94940000Y-58140000D03*
%TO.N,/GND*%
X84200000Y-58140000D03*
X85490000Y-58140000D03*
%TD*%
D43*
%TO.N,Net-(J8-Pad1)*%
X173304450Y-88594482D02*
G75*
G03*
X169768932Y-87130000I-3535550J-3535518D01*
G01*
X178901068Y-92120022D02*
G75*
G02*
X175365535Y-90655533I32J5000022D01*
G01*
X164375000Y-87130000D02*
X169768932Y-87130000D01*
X173304466Y-88594466D02*
X175365534Y-90655534D01*
X178901068Y-92120000D02*
X224395000Y-92120000D01*
%TO.N,/+3.3V*%
X184400000Y-88960000D02*
X184390000Y-88970000D01*
X184400000Y-86930000D02*
X184400000Y-88960000D01*
D44*
%TO.N,/+5V*%
X200460000Y-68340000D02*
X217040000Y-68340000D01*
D45*
X217040000Y-68340000D02*
X217050000Y-68330000D01*
D43*
%TO.N,/+12V*%
X184410000Y-79250000D02*
X185870000Y-77790000D01*
X184410000Y-79870000D02*
X184410000Y-79250000D01*
X185870000Y-77790000D02*
X186426341Y-78346341D01*
X186426341Y-78346341D02*
X215226341Y-78346341D01*
X215226341Y-78346341D02*
X217050000Y-80170000D01*
%TO.N,/+3.3V*%
X212730000Y-53030000D02*
X212780000Y-53080000D01*
X212730000Y-51540000D02*
X212730000Y-53030000D01*
D45*
%TO.N,/FTDI_RTS#*%
X208760000Y-49640000D02*
X212730000Y-49640000D01*
D43*
%TO.N,/RF4*%
X153225518Y-99574450D02*
G75*
G03*
X154690000Y-96038932I-3535518J3535550D01*
G01*
%TO.N,/RF3*%
X150801068Y-87129978D02*
G75*
G03*
X147265535Y-88594467I32J-5000022D01*
G01*
%TO.N,/RF1*%
X152031068Y-76970022D02*
G75*
G02*
X148495535Y-75505533I32J5000022D01*
G01*
X135988932Y-65069978D02*
G75*
G02*
X139524465Y-66534467I-32J-5000022D01*
G01*
%TO.N,/RF4*%
X135020000Y-115910000D02*
X136890000Y-115910000D01*
X136890000Y-115910000D02*
X153225534Y-99574466D01*
X154690000Y-96038932D02*
X154690000Y-92245000D01*
X154690000Y-92245000D02*
X154725000Y-92210000D01*
%TO.N,/RF3*%
X135020000Y-98847500D02*
X137012500Y-98847500D01*
X137012500Y-98847500D02*
X147265534Y-88594466D01*
X150801068Y-87130000D02*
X154725000Y-87130000D01*
%TO.N,/RF2*%
X135020000Y-82010000D02*
X154685000Y-82010000D01*
X154685000Y-82010000D02*
X154725000Y-82050000D01*
%TO.N,/RF1*%
X135020000Y-65070000D02*
X135988932Y-65070000D01*
X152031068Y-76970000D02*
X154725000Y-76970000D01*
X139524466Y-66534466D02*
X148495534Y-75505534D01*
D45*
%TO.N,/+3.3V*%
X169970000Y-67330000D02*
X169910000Y-67390000D01*
X169970000Y-65580000D02*
X169970000Y-67330000D01*
%TO.N,/GND*%
X168170000Y-65580000D02*
X166330000Y-65580000D01*
X168180000Y-62570000D02*
X166310000Y-62570000D01*
%TO.N,/+3.3V*%
X169940000Y-60780000D02*
X169950000Y-60770000D01*
X169940000Y-62570000D02*
X169940000Y-60780000D01*
X174210000Y-62980000D02*
X173370000Y-63820000D01*
X174680000Y-62980000D02*
X174210000Y-62980000D01*
D44*
%TO.N,/GND*%
X208330000Y-70590000D02*
X208340000Y-70600000D01*
X206710000Y-70590000D02*
X208330000Y-70590000D01*
%TO.N,/+3.3V*%
X202820000Y-70570000D02*
X204890000Y-70570000D01*
X204890000Y-70570000D02*
X204910000Y-70590000D01*
X194160000Y-75940000D02*
X194130000Y-75970000D01*
D46*
X194160000Y-70620000D02*
X194160000Y-75940000D01*
D44*
X202770000Y-70620000D02*
X202820000Y-70570000D01*
X200460000Y-70620000D02*
X202770000Y-70620000D01*
%TO.N,/GND*%
X202770000Y-72900000D02*
X202820000Y-72850000D01*
X200460000Y-72900000D02*
X202770000Y-72900000D01*
%TO.N,/+5V*%
X200370000Y-57240000D02*
X200370000Y-68250000D01*
D45*
X200370000Y-68250000D02*
X200460000Y-68340000D01*
%TO.N,/GND*%
X192370000Y-62980000D02*
X192440000Y-62910000D01*
X190680000Y-62980000D02*
X192370000Y-62980000D01*
X196190000Y-61140000D02*
X197760000Y-61140000D01*
%TO.N,/SPI_CS*%
X190680000Y-60980000D02*
X194130000Y-60980000D01*
X194130000Y-60980000D02*
X194290000Y-61140000D01*
%TO.N,/+3.3V*%
X197700000Y-59000000D02*
X197750000Y-58950000D01*
X196200000Y-59000000D02*
X197700000Y-59000000D01*
%TO.N,Net-(MOD1-Pad11)*%
X190680000Y-58980000D02*
X194280000Y-58980000D01*
X194280000Y-58980000D02*
X194300000Y-59000000D01*
%TO.N,/FTDI_5V*%
X203670000Y-57240000D02*
X208740000Y-57240000D01*
X208740000Y-57240000D02*
X208760000Y-57260000D01*
%TO.N,/FTDI_RTS#*%
X194390000Y-56980000D02*
X194590000Y-56780000D01*
X190680000Y-56980000D02*
X194390000Y-56980000D01*
%TO.N,/FTDI_TX*%
X208760000Y-54720000D02*
X194420000Y-54720000D01*
X194420000Y-54720000D02*
X190680000Y-50980000D01*
%TO.N,/FTDI_RX*%
X190680000Y-48980000D02*
X205560000Y-48980000D01*
X205560000Y-48980000D02*
X208760000Y-52180000D01*
%TO.N,/IO4*%
X188630000Y-71630000D02*
X188630000Y-57030000D01*
X188630000Y-57030000D02*
X190680000Y-54980000D01*
X174918500Y-80944000D02*
X174918500Y-80338500D01*
X174918500Y-80338500D02*
X174620000Y-80040000D01*
D43*
%TO.N,/IO16*%
X174918500Y-81604400D02*
X174057882Y-81604400D01*
X174057882Y-81604400D02*
X173732683Y-81279201D01*
X173732683Y-81279201D02*
X173732683Y-67677317D01*
X173732683Y-67677317D02*
X178010000Y-63400000D01*
X178010000Y-57820000D02*
X175300000Y-55110000D01*
X178010000Y-63400000D02*
X178010000Y-57820000D01*
%TO.N,/SPI_CLK*%
X176810000Y-63720000D02*
X176810000Y-57910000D01*
X175880000Y-56980000D02*
X174680000Y-56980000D01*
X176010000Y-64520000D02*
X176810000Y-63720000D01*
X173120000Y-81532982D02*
X173120000Y-65190000D01*
X173851818Y-82264800D02*
X173120000Y-81532982D01*
X174918500Y-82264800D02*
X173851818Y-82264800D01*
X176810000Y-57910000D02*
X175880000Y-56980000D01*
X173120000Y-65190000D02*
X173790000Y-64520000D01*
X173790000Y-64520000D02*
X176010000Y-64520000D01*
%TO.N,/+3.3V*%
X168000000Y-52930000D02*
X167970000Y-52900000D01*
X169700000Y-52930000D02*
X168000000Y-52930000D01*
%TO.N,Net-(MOD1-Pad3)*%
X174680000Y-52980000D02*
X171650000Y-52980000D01*
X171650000Y-52980000D02*
X171600000Y-52930000D01*
%TO.N,/+3.3V*%
X169700000Y-48980000D02*
X168000000Y-48980000D01*
%TO.N,Net-(MOD1-Pad1)*%
X174680000Y-48980000D02*
X171600000Y-48980000D01*
D45*
%TO.N,/IO5*%
X176050000Y-80100000D02*
X175050000Y-79100000D01*
X176050000Y-85471100D02*
X176050000Y-80100000D01*
X175050000Y-79100000D02*
X175050000Y-68610000D01*
X176005100Y-85516000D02*
X176050000Y-85471100D01*
X174918500Y-85516000D02*
X176005100Y-85516000D01*
X175050000Y-68610000D02*
X190680000Y-52980000D01*
D43*
%TO.N,/GND*%
X174918500Y-84855600D02*
X173979559Y-84855600D01*
X173979559Y-84855600D02*
X173490000Y-84366041D01*
X173660841Y-84195200D02*
X173490000Y-84366041D01*
X174918500Y-84195200D02*
X173660841Y-84195200D01*
%TO.N,/SPI_MISO*%
X174680000Y-58980000D02*
X171737317Y-61922683D01*
X171737317Y-61922683D02*
X171737317Y-82257317D01*
X171737317Y-82257317D02*
X173040200Y-83560200D01*
X173040200Y-83560200D02*
X174918500Y-83560200D01*
%TO.N,/SPI_MOSI*%
X172350000Y-63310000D02*
X172350000Y-81990000D01*
X174680000Y-60980000D02*
X172350000Y-63310000D01*
X173259800Y-82899800D02*
X174918500Y-82899800D01*
X172350000Y-81990000D02*
X173259800Y-82899800D01*
%TO.N,Net-(TP1-Pad1)*%
X180557300Y-81604400D02*
X182155600Y-81604400D01*
X182155600Y-81604400D02*
X182580000Y-81180000D01*
X182580000Y-81180000D02*
X182580000Y-75990000D01*
%TO.N,/+3.3V*%
X180557300Y-82899800D02*
X179069800Y-82899800D01*
X179069800Y-82899800D02*
X179010000Y-82840000D01*
X179010000Y-82840000D02*
X179010000Y-81130000D01*
X179010000Y-81130000D02*
X179196000Y-80944000D01*
X179196000Y-80944000D02*
X180557300Y-80944000D01*
%TO.N,/GND*%
X186160000Y-86930000D02*
X187770000Y-86930000D01*
X187760000Y-84590000D02*
X187770000Y-84600000D01*
X186220000Y-84590000D02*
X187760000Y-84590000D01*
%TO.N,/+3.3V*%
X184420000Y-84590000D02*
X184420000Y-86910000D01*
X184420000Y-86910000D02*
X184400000Y-86930000D01*
X184420000Y-84590000D02*
X182806059Y-82976059D01*
X182806059Y-82976059D02*
X180980000Y-82976059D01*
%TO.N,/GND*%
X187780000Y-79870000D02*
X187790000Y-79880000D01*
X186210000Y-79870000D02*
X187780000Y-79870000D01*
%TO.N,/+12V*%
X184410000Y-79870000D02*
X184410000Y-82210000D01*
X184410000Y-82210000D02*
X184380000Y-82240000D01*
%TO.N,/GND*%
X187750000Y-82240000D02*
X187820000Y-82170000D01*
X186140000Y-82240000D02*
X187750000Y-82240000D01*
%TO.N,/+12V*%
X180557300Y-82264800D02*
X184355200Y-82264800D01*
X184355200Y-82264800D02*
X184380000Y-82240000D01*
%TO.N,/BIAS4*%
X178440000Y-87880000D02*
X178440000Y-87633300D01*
X178440000Y-87633300D02*
X180557300Y-85516000D01*
%TO.N,/BIAS3*%
X177160000Y-87300000D02*
X179604400Y-84855600D01*
X179604400Y-84855600D02*
X180557300Y-84855600D01*
%TO.N,/BIAS2*%
X174450000Y-88110000D02*
X178364800Y-84195200D01*
X178364800Y-84195200D02*
X180557300Y-84195200D01*
%TO.N,/BIAS1*%
X176570000Y-79470000D02*
X177230000Y-80130000D01*
X177230000Y-83460000D02*
X177330200Y-83560200D01*
X177230000Y-80130000D02*
X177230000Y-83460000D01*
X177330200Y-83560200D02*
X180557300Y-83560200D01*
%TO.N,/BIAS4*%
X132480000Y-118430000D02*
X132550000Y-118500000D01*
X132480000Y-115910000D02*
X132480000Y-118430000D01*
X127400000Y-118490000D02*
X127450000Y-118540000D01*
X127400000Y-115910000D02*
X127400000Y-118490000D01*
%TO.N,/BIAS3*%
X132480000Y-101320000D02*
X132550000Y-101390000D01*
X132480000Y-98847500D02*
X132480000Y-101320000D01*
X127400000Y-101370000D02*
X127450000Y-101420000D01*
X127400000Y-98847500D02*
X127400000Y-101370000D01*
%TO.N,/BIAS2*%
X132480000Y-82010000D02*
X132480000Y-84790000D01*
X127400000Y-84780000D02*
X127410000Y-84790000D01*
X127400000Y-82010000D02*
X127400000Y-84780000D01*
%TO.N,/BIAS1*%
X132480000Y-65070000D02*
X132480000Y-67080000D01*
X127400000Y-67080000D02*
X127390000Y-67090000D01*
X127400000Y-65070000D02*
X127400000Y-67080000D01*
D47*
%TO.N,/GND*%
X129940000Y-118610000D02*
X129960000Y-118630000D01*
X129940000Y-115910000D02*
X129940000Y-118610000D01*
X124870000Y-118490000D02*
X124870000Y-115920000D01*
X122320000Y-118450000D02*
X122320000Y-118660000D01*
X124830000Y-118680000D02*
X124870000Y-118640000D01*
X124870000Y-118640000D02*
X124870000Y-118490000D01*
X122340000Y-118680000D02*
X124830000Y-118680000D01*
X122320000Y-115910000D02*
X122320000Y-118450000D01*
X122320000Y-118660000D02*
X122340000Y-118680000D01*
X124870000Y-115920000D02*
X124860000Y-115910000D01*
X129940000Y-98847500D02*
X129890000Y-103170000D01*
X134965000Y-103305000D02*
X135020000Y-103360000D01*
X132110000Y-103170000D02*
X132530000Y-103170000D01*
X129940000Y-103250000D02*
X129940000Y-106510000D01*
X127430000Y-103170000D02*
X129890000Y-103170000D01*
X124780000Y-103170000D02*
X124870000Y-103170000D01*
X122680000Y-103170000D02*
X124780000Y-103170000D01*
X119780000Y-103250000D02*
X119780000Y-103200000D01*
X132480000Y-103220000D02*
X134880000Y-103220000D01*
X134880000Y-103220000D02*
X134965000Y-103305000D01*
X135020000Y-103360000D02*
X135020000Y-106510000D01*
X129890000Y-103170000D02*
X132110000Y-103170000D01*
X132530000Y-103170000D02*
X132480000Y-103220000D01*
X132480000Y-103220000D02*
X132480000Y-106510000D01*
X127370000Y-103170000D02*
X127430000Y-103170000D01*
X129890000Y-103170000D02*
X129940000Y-103220000D01*
X129940000Y-103220000D02*
X129940000Y-103250000D01*
X127370000Y-103170000D02*
X127390000Y-103150000D01*
X124870000Y-103170000D02*
X127370000Y-103170000D01*
X127390000Y-103150000D02*
X127400000Y-103160000D01*
X127400000Y-103160000D02*
X127400000Y-106510000D01*
X124870000Y-103170000D02*
X124900000Y-103200000D01*
X122410000Y-103170000D02*
X122680000Y-103170000D01*
X124900000Y-103200000D02*
X124860000Y-103240000D01*
X124860000Y-103240000D02*
X124860000Y-106510000D01*
X119750000Y-103170000D02*
X122410000Y-103170000D01*
X119780000Y-106510000D02*
X119780000Y-103250000D01*
X122320000Y-103260000D02*
X122320000Y-106510000D01*
X119780000Y-103200000D02*
X119750000Y-103170000D01*
X122410000Y-103170000D02*
X122320000Y-103260000D01*
X124890000Y-101380000D02*
X124890000Y-98877500D01*
D48*
X122380000Y-101440000D02*
X124890000Y-101440000D01*
D47*
X122270000Y-101330000D02*
X122380000Y-101440000D01*
X122320000Y-98847500D02*
X122320000Y-101280000D01*
X122320000Y-101280000D02*
X122270000Y-101330000D01*
X124890000Y-101440000D02*
X124890000Y-101380000D01*
X124890000Y-98877500D02*
X124860000Y-98847500D01*
X130270000Y-87420000D02*
X132450000Y-87420000D01*
X127550000Y-87370000D02*
X129850000Y-87370000D01*
X124795000Y-87415000D02*
X124860000Y-87480000D01*
X122360000Y-87340000D02*
X122370000Y-87340000D01*
X134970000Y-87470000D02*
X135020000Y-87520000D01*
X134950000Y-87450000D02*
X134970000Y-87470000D01*
X132480000Y-87450000D02*
X134950000Y-87450000D01*
X135020000Y-87520000D02*
X135020000Y-89447500D01*
X129900000Y-87420000D02*
X130270000Y-87420000D01*
X129850000Y-87370000D02*
X129900000Y-87420000D01*
X132450000Y-87420000D02*
X132480000Y-87450000D01*
X132480000Y-87450000D02*
X132480000Y-89447500D01*
X127400000Y-87370000D02*
X127550000Y-87370000D01*
X129850000Y-87370000D02*
X129940000Y-87460000D01*
X129940000Y-87460000D02*
X129940000Y-89447500D01*
X124720000Y-87340000D02*
X127370000Y-87340000D01*
X127370000Y-87340000D02*
X127400000Y-87370000D01*
X127400000Y-87370000D02*
X127400000Y-89447500D01*
X122370000Y-87340000D02*
X124720000Y-87340000D01*
X124720000Y-87340000D02*
X124795000Y-87415000D01*
X124860000Y-87480000D02*
X124860000Y-89447500D01*
X119820000Y-87340000D02*
X122360000Y-87340000D01*
X119780000Y-89447500D02*
X119780000Y-87380000D01*
X119780000Y-87380000D02*
X119820000Y-87340000D01*
X122370000Y-89397500D02*
X122320000Y-89447500D01*
X122370000Y-87340000D02*
X122370000Y-89397500D01*
X129950000Y-85955000D02*
X129950000Y-83245000D01*
X122335000Y-85865000D02*
X122370000Y-85900000D01*
X122310000Y-83190000D02*
X122310000Y-85840000D01*
X124860000Y-83200000D02*
X124850000Y-83190000D01*
X124860000Y-85900000D02*
X124860000Y-83200000D01*
X122370000Y-85900000D02*
X124860000Y-85900000D01*
X122310000Y-85840000D02*
X122335000Y-85865000D01*
X127425000Y-68670000D02*
X129835000Y-68670000D01*
X134955000Y-68670000D02*
X135005000Y-68670000D01*
X119775000Y-71470000D02*
X119775000Y-68740000D01*
X129835000Y-68670000D02*
X129955000Y-68670000D01*
X127425000Y-71440000D02*
X127395000Y-71470000D01*
X129955000Y-68670000D02*
X132395000Y-68670000D01*
X124845000Y-68660000D02*
X124855000Y-68670000D01*
X129955000Y-68670000D02*
X129955000Y-71450000D01*
X124855000Y-68670000D02*
X124855000Y-71470000D01*
X124855000Y-68670000D02*
X127205000Y-68670000D01*
X119855000Y-68660000D02*
X122335000Y-68660000D01*
X132395000Y-68670000D02*
X132425000Y-68670000D01*
X122335000Y-68710000D02*
X122335000Y-71450000D01*
X122335000Y-68660000D02*
X124845000Y-68660000D01*
X132425000Y-68670000D02*
X132475000Y-68720000D01*
X132475000Y-68720000D02*
X132475000Y-71470000D01*
X122335000Y-68660000D02*
X122335000Y-68710000D01*
X122335000Y-71450000D02*
X122315000Y-71470000D01*
X119775000Y-68740000D02*
X119855000Y-68660000D01*
X129955000Y-71450000D02*
X129935000Y-71470000D01*
X135005000Y-68670000D02*
X135025000Y-68690000D01*
X135025000Y-68690000D02*
X135025000Y-71460000D01*
X132425000Y-68670000D02*
X134955000Y-68670000D01*
X127205000Y-68670000D02*
X127425000Y-68670000D01*
X127425000Y-68670000D02*
X127425000Y-71440000D01*
X135025000Y-71460000D02*
X135015000Y-71470000D01*
D43*
%TO.N,Net-(C12-Pad2)*%
X102920000Y-115850000D02*
X119720000Y-115850000D01*
X119720000Y-115850000D02*
X119780000Y-115910000D01*
%TO.N,Net-(C11-Pad2)*%
X102920000Y-98940000D02*
X119687500Y-98940000D01*
X119687500Y-98940000D02*
X119780000Y-98847500D01*
%TO.N,Net-(C10-Pad2)*%
X102920000Y-82030000D02*
X119760000Y-82030000D01*
X119760000Y-82030000D02*
X119780000Y-82010000D01*
%TO.N,Net-(C3-Pad2)*%
X102920000Y-65120000D02*
X119730000Y-65120000D01*
X119730000Y-65120000D02*
X119780000Y-65070000D01*
D47*
%TO.N,/GND*%
X129940000Y-67780000D02*
X129940000Y-65070000D01*
X122345000Y-67745000D02*
X122380000Y-67780000D01*
X122380000Y-67780000D02*
X124870000Y-67780000D01*
X122320000Y-67720000D02*
X122345000Y-67745000D01*
X122320000Y-65070000D02*
X122320000Y-67720000D01*
X124870000Y-67780000D02*
X124870000Y-65080000D01*
X124870000Y-65080000D02*
X124860000Y-65070000D01*
X134960000Y-52870000D02*
X135010000Y-52870000D01*
X132400000Y-52870000D02*
X132430000Y-52870000D01*
X129840000Y-52870000D02*
X129960000Y-52870000D01*
X127210000Y-52870000D02*
X127430000Y-52870000D01*
X122340000Y-52910000D02*
X122340000Y-55650000D01*
X135010000Y-52870000D02*
X135030000Y-52890000D01*
X132430000Y-52870000D02*
X134960000Y-52870000D01*
X135030000Y-52890000D02*
X135030000Y-55660000D01*
X135030000Y-55660000D02*
X135020000Y-55670000D01*
X129960000Y-52870000D02*
X132400000Y-52870000D01*
X132430000Y-52870000D02*
X132480000Y-52920000D01*
X132480000Y-52920000D02*
X132480000Y-55670000D01*
X127430000Y-52870000D02*
X129840000Y-52870000D01*
X129960000Y-52870000D02*
X129960000Y-55650000D01*
X129960000Y-55650000D02*
X129940000Y-55670000D01*
X124860000Y-52870000D02*
X127210000Y-52870000D01*
X127430000Y-52870000D02*
X127430000Y-55640000D01*
X127430000Y-55640000D02*
X127400000Y-55670000D01*
X124850000Y-52860000D02*
X124860000Y-52870000D01*
X122340000Y-52860000D02*
X124850000Y-52860000D01*
X124860000Y-52870000D02*
X124860000Y-55670000D01*
X119860000Y-52860000D02*
X122340000Y-52860000D01*
X119780000Y-52940000D02*
X119860000Y-52860000D01*
X119780000Y-55670000D02*
X119780000Y-52940000D01*
X122340000Y-52860000D02*
X122340000Y-52910000D01*
X122340000Y-55650000D02*
X122320000Y-55670000D01*
D43*
%TO.N,/+3.3V*%
X100160000Y-89810000D02*
X100160000Y-91060000D01*
X100130000Y-89780000D02*
X100160000Y-89810000D01*
X100130000Y-88265000D02*
X100130000Y-89780000D01*
X100120000Y-124550000D02*
X100130000Y-124560000D01*
X100120000Y-123430000D02*
X100120000Y-124550000D01*
X100130000Y-123420000D02*
X100120000Y-123430000D01*
X100130000Y-122085000D02*
X100130000Y-123420000D01*
%TO.N,Net-(C12-Pad1)*%
X97590000Y-119295000D02*
X101035000Y-115850000D01*
X101035000Y-115850000D02*
X101160000Y-115850000D01*
X93660000Y-119380000D02*
X97505000Y-119380000D01*
X97505000Y-119380000D02*
X97590000Y-119295000D01*
%TO.N,/+3.3V*%
X100150000Y-108100000D02*
X100130000Y-108120000D01*
X100150000Y-106860000D02*
X100150000Y-108100000D01*
X100130000Y-106840000D02*
X100150000Y-106860000D01*
X100130000Y-105175000D02*
X100130000Y-106840000D01*
%TO.N,Net-(C11-Pad1)*%
X97590000Y-102385000D02*
X97715000Y-102385000D01*
X97715000Y-102385000D02*
X101160000Y-98940000D01*
X93660000Y-102440000D02*
X97535000Y-102440000D01*
X97535000Y-102440000D02*
X97590000Y-102385000D01*
%TO.N,Net-(C10-Pad1)*%
X97590000Y-85475000D02*
X97715000Y-85475000D01*
X97715000Y-85475000D02*
X101160000Y-82030000D01*
X93660000Y-85500000D02*
X97565000Y-85500000D01*
X97565000Y-85500000D02*
X97590000Y-85475000D01*
%TO.N,/+3.3V*%
X100130000Y-74030000D02*
X100140000Y-74040000D01*
X100130000Y-72850000D02*
X100130000Y-74030000D01*
X100130000Y-71355000D02*
X100130000Y-72850000D01*
%TO.N,Net-(C3-Pad1)*%
X97590000Y-68565000D02*
X97715000Y-68565000D01*
X97715000Y-68565000D02*
X101160000Y-65120000D01*
X93660000Y-68590000D02*
X97565000Y-68590000D01*
X97565000Y-68590000D02*
X97590000Y-68565000D01*
%TO.N,Net-(C6-Pad2)*%
X85050000Y-119380000D02*
X88400000Y-119380000D01*
X88400000Y-119380000D02*
X90660000Y-119380000D01*
X88350000Y-113350000D02*
X88350000Y-119330000D01*
X88350000Y-119330000D02*
X88400000Y-119380000D01*
%TO.N,/+3.3V*%
X96070000Y-108960000D02*
X96080000Y-108950000D01*
X94650000Y-108960000D02*
X96070000Y-108960000D01*
X94625000Y-108935000D02*
X94650000Y-108960000D01*
X92690000Y-108935000D02*
X94625000Y-108935000D01*
%TO.N,/GND*%
X84560000Y-108930000D02*
X84550000Y-108920000D01*
X85860000Y-108930000D02*
X84560000Y-108930000D01*
X85880000Y-108950000D02*
X85860000Y-108930000D01*
X87480000Y-108950000D02*
X85880000Y-108950000D01*
%TO.N,/+3.3V*%
X89240000Y-108950000D02*
X92675000Y-108950000D01*
X92675000Y-108950000D02*
X92690000Y-108935000D01*
%TO.N,Net-(L4-Pad2)*%
X92642600Y-116839900D02*
X92642600Y-113402600D01*
X92642600Y-113402600D02*
X92642600Y-110652400D01*
X92590000Y-113350000D02*
X92642600Y-113402600D01*
X90130000Y-113350000D02*
X92590000Y-113350000D01*
X92642600Y-110652400D02*
X92690000Y-110605000D01*
%TO.N,/+3.3V*%
X96210000Y-91990000D02*
X96220000Y-92000000D01*
X94730000Y-91990000D02*
X96210000Y-91990000D01*
X94725000Y-91995000D02*
X94730000Y-91990000D01*
X92690000Y-91995000D02*
X94725000Y-91995000D01*
%TO.N,/GND*%
X84300000Y-92020000D02*
X84290000Y-92030000D01*
X85630000Y-92020000D02*
X84300000Y-92020000D01*
X85640000Y-92010000D02*
X85630000Y-92020000D01*
X87480000Y-92010000D02*
X85640000Y-92010000D01*
%TO.N,Net-(C5-Pad2)*%
X85050000Y-102440000D02*
X88280000Y-102440000D01*
X88280000Y-102440000D02*
X90660000Y-102440000D01*
X88350000Y-96410000D02*
X88350000Y-102370000D01*
X88350000Y-102370000D02*
X88280000Y-102440000D01*
%TO.N,Net-(L3-Pad2)*%
X92642600Y-99899900D02*
X92642600Y-96482600D01*
X92642600Y-96482600D02*
X92642600Y-93712400D01*
X90130000Y-96410000D02*
X92570000Y-96410000D01*
X92570000Y-96410000D02*
X92642600Y-96482600D01*
%TO.N,/+3.3V*%
X89240000Y-92010000D02*
X92675000Y-92010000D01*
X92675000Y-92010000D02*
X92690000Y-91995000D01*
%TO.N,Net-(L3-Pad2)*%
X92642600Y-93712400D02*
X92690000Y-93665000D01*
%TO.N,/+3.3V*%
X90890000Y-75070000D02*
X92675000Y-75070000D01*
X90915000Y-58145000D02*
X89255000Y-58145000D01*
X94680000Y-75060000D02*
X96210000Y-75060000D01*
X94675000Y-75055000D02*
X94680000Y-75060000D01*
X92690000Y-75055000D02*
X94675000Y-75055000D01*
%TO.N,/GND*%
X84630000Y-75060000D02*
X84600000Y-75090000D01*
X85810000Y-75060000D02*
X84630000Y-75060000D01*
X85820000Y-75070000D02*
X85810000Y-75060000D01*
X87480000Y-75070000D02*
X85820000Y-75070000D01*
%TO.N,/+3.3V*%
X89240000Y-75070000D02*
X90890000Y-75070000D01*
X92675000Y-75070000D02*
X92690000Y-75055000D01*
%TO.N,Net-(C4-Pad2)*%
X85050000Y-85510000D02*
X88330000Y-85510000D01*
X88330000Y-85510000D02*
X90650000Y-85510000D01*
X88350000Y-79470000D02*
X88350000Y-85490000D01*
X88350000Y-85490000D02*
X88330000Y-85510000D01*
%TO.N,Net-(L2-Pad2)*%
X92642600Y-82959900D02*
X92642600Y-79542600D01*
X92642600Y-79542600D02*
X92642600Y-76772400D01*
X90130000Y-79470000D02*
X92570000Y-79470000D01*
X92570000Y-79470000D02*
X92642600Y-79542600D01*
X92642600Y-76772400D02*
X92690000Y-76725000D01*
%TO.N,/+3.3V*%
X94940000Y-58140000D02*
X96190000Y-58140000D01*
X94935000Y-58145000D02*
X94940000Y-58140000D01*
X92660000Y-58145000D02*
X94935000Y-58145000D01*
%TO.N,/GND*%
X85490000Y-58140000D02*
X84200000Y-58140000D01*
X85510000Y-58160000D02*
X85490000Y-58140000D01*
X87480000Y-58160000D02*
X85510000Y-58160000D01*
%TO.N,Net-(C1-Pad2)*%
X85050000Y-68570000D02*
X88360000Y-68570000D01*
X88350000Y-68560000D02*
X88360000Y-68570000D01*
X88360000Y-68570000D02*
X90640000Y-68570000D01*
X88350000Y-62560000D02*
X88350000Y-68560000D01*
%TO.N,/+3.3V*%
X92660000Y-58145000D02*
X90915000Y-58145000D01*
X89255000Y-58145000D02*
X89240000Y-58160000D01*
%TO.N,Net-(L1-Pad2)*%
X92642600Y-62560000D02*
X92660000Y-62542600D01*
X92660000Y-62542600D02*
X92660000Y-59815000D01*
X92642600Y-66049900D02*
X92642600Y-62560000D01*
X92642600Y-62560000D02*
X90130000Y-62560000D01*
%TO.N,Net-(C6-Pad1)*%
X75825000Y-119380000D02*
X83290000Y-119380000D01*
%TO.N,Net-(C5-Pad1)*%
X75825000Y-102446666D02*
X83283334Y-102446666D01*
X83283334Y-102446666D02*
X83290000Y-102440000D01*
%TO.N,Net-(C4-Pad2)*%
X90650000Y-85510000D02*
X90660000Y-85500000D01*
%TO.N,Net-(C4-Pad1)*%
X75825000Y-85513333D02*
X83286667Y-85513333D01*
X83286667Y-85513333D02*
X83290000Y-85510000D01*
%TO.N,Net-(C1-Pad2)*%
X90640000Y-68570000D02*
X90660000Y-68590000D01*
%TO.N,Net-(C1-Pad1)*%
X75825000Y-68580000D02*
X83280000Y-68580000D01*
X83280000Y-68580000D02*
X83290000Y-68570000D01*
%TD*%
M02*
